<?xml version="1.0" encoding="UTF-8" standalone="no"?>
<!-- Created with Inkscape (http://www.inkscape.org/) -->

<svg
   xmlns:dc="http://purl.org/dc/elements/1.1/"
   xmlns:cc="http://creativecommons.org/ns#"
   xmlns:rdf="http://www.w3.org/1999/02/22-rdf-syntax-ns#"
   xmlns:svg="http://www.w3.org/2000/svg"
   xmlns="http://www.w3.org/2000/svg"
   xmlns:sodipodi="http://sodipodi.sourceforge.net/DTD/sodipodi-0.dtd"
   xmlns:inkscape="http://www.inkscape.org/namespaces/inkscape"
   id="svg2"
   version="1.1"
   inkscape:version="0.91 r13725"
   width="397.31802"
   height="699.33209"
   sodipodi:docname="c.svg"
   inkscape:export-filename="/home/susan/Documents/Valentina/Measurements/measurement-body-diagram_20150730_50dpi.png"
   inkscape:export-xdpi="50"
   inkscape:export-ydpi="50">
  <metadata
     id="metadata8">
    <rdf:RDF>
      <cc:Work
         rdf:about="">
        <dc:format>image/svg+xml</dc:format>
        <dc:type
           rdf:resource="http://purl.org/dc/dcmitype/StillImage" />
        <dc:title />
      </cc:Work>
    </rdf:RDF>
  </metadata>
  <defs
     id="defs">
    <marker
       inkscape:stockid="Arrow2Mend"
       orient="auto"
       refY="0"
       refX="0"
       id="Arrow2Mend"
       style="overflow:visible">
      <path
         id="path8911"
         style="fill-rule:evenodd;stroke-width:0.625;stroke-linejoin:round"
         d="M 8.719,4.034 -2.207,0.016 8.719,-4.002 c -1.746,2.372 -1.736,5.618 0,8.036 z"
         transform="scale(-0.6,-0.6)"
         inkscape:connector-curvature="0" />
    </marker>
    <marker
       inkscape:stockid="Arrow1Lend"
       orient="auto"
       refY="0"
       refX="0"
       id="Arrow1Lend"
       style="overflow:visible">
      <path
         id="path8887"
         d="M 0,0 5,-5 -12.5,0 5,5 0,0 Z"
         style="fill-rule:evenodd;stroke:#000000;stroke-width:1pt"
         transform="matrix(-0.8,0,0,-0.8,-10,0)"
         inkscape:connector-curvature="0" />
    </marker>
    <marker
       inkscape:stockid="DotS"
       orient="auto"
       refY="0"
       refX="0"
       id="DotS"
       style="overflow:visible">
      <path
         id="path6414"
         d="m -2.5,-1 c 0,2.76 -2.24,5 -5,5 -2.76,0 -5,-2.24 -5,-5 0,-2.76 2.24,-5 5,-5 2.76,0 5,2.24 5,5 z"
         style="fill-rule:evenodd;stroke:#000000;stroke-width:1pt"
         transform="matrix(0.2,0,0,0.2,1.48,0.2)"
         inkscape:connector-curvature="0" />
    </marker>
    <marker
       inkscape:stockid="Arrow2Mend"
       orient="auto"
       refY="0"
       refX="0"
       id="Arrow2Mend-1"
       style="overflow:visible">
      <path
         id="path8911-8"
         style="fill-rule:evenodd;stroke-width:0.625;stroke-linejoin:round"
         d="M 8.719,4.034 -2.207,0.016 8.719,-4.002 c -1.746,2.372 -1.736,5.618 0,8.036 z"
         transform="scale(-0.6,-0.6)"
         inkscape:connector-curvature="0" />
    </marker>
    <marker
       inkscape:stockid="Arrow2Mend"
       orient="auto"
       refY="0"
       refX="0"
       id="marker8958"
       style="overflow:visible">
      <path
         id="path8960"
         style="fill-rule:evenodd;stroke-width:0.625;stroke-linejoin:round"
         d="M 8.719,4.034 -2.207,0.016 8.719,-4.002 c -1.746,2.372 -1.736,5.618 0,8.036 z"
         transform="scale(-0.6,-0.6)"
         inkscape:connector-curvature="0" />
    </marker>
    <marker
       inkscape:stockid="Arrow2Mend"
       orient="auto"
       refY="0"
       refX="0"
       id="marker8958-1"
       style="overflow:visible">
      <path
         id="path8960-5"
         style="fill-rule:evenodd;stroke-width:0.625;stroke-linejoin:round"
         d="M 8.719,4.034 -2.207,0.016 8.719,-4.002 c -1.746,2.372 -1.736,5.618 0,8.036 z"
         transform="scale(-0.6,-0.6)"
         inkscape:connector-curvature="0" />
    </marker>
    <marker
       inkscape:stockid="Arrow2Mend"
       orient="auto"
       refY="0"
       refX="0"
       id="marker8958-0"
       style="overflow:visible">
      <path
         id="path8960-7"
         style="fill-rule:evenodd;stroke-width:0.625;stroke-linejoin:round"
         d="M 8.719,4.034 -2.207,0.016 8.719,-4.002 c -1.746,2.372 -1.736,5.618 0,8.036 z"
         transform="scale(-0.6,-0.6)"
         inkscape:connector-curvature="0" />
    </marker>
    <marker
       inkscape:stockid="Arrow2Mend"
       orient="auto"
       refY="0"
       refX="0"
       id="marker14967"
       style="overflow:visible">
      <path
         id="path14969"
         style="fill-rule:evenodd;stroke-width:0.625;stroke-linejoin:round"
         d="M 8.719,4.034 -2.207,0.016 8.719,-4.002 c -1.746,2.372 -1.736,5.618 0,8.036 z"
         transform="scale(-0.6,-0.6)"
         inkscape:connector-curvature="0" />
    </marker>
    <marker
       inkscape:stockid="Arrow2Mend"
       orient="auto"
       refY="0"
       refX="0"
       id="Arrow2Mend-2"
       style="overflow:visible">
      <path
         id="path8911-1"
         style="fill-rule:evenodd;stroke-width:0.625;stroke-linejoin:round"
         d="M 8.719,4.034 -2.207,0.016 8.719,-4.002 c -1.746,2.372 -1.736,5.618 0,8.036 z"
         transform="scale(-0.6,-0.6)"
         inkscape:connector-curvature="0" />
    </marker>
    <marker
       inkscape:stockid="Arrow2Mend"
       orient="auto"
       refY="0"
       refX="0"
       id="marker11940"
       style="overflow:visible">
      <path
         id="path11942"
         style="fill-rule:evenodd;stroke-width:0.625;stroke-linejoin:round"
         d="M 8.719,4.034 -2.207,0.016 8.719,-4.002 c -1.746,2.372 -1.736,5.618 0,8.036 z"
         transform="scale(-0.6,-0.6)"
         inkscape:connector-curvature="0" />
    </marker>
    <marker
       inkscape:stockid="Arrow2Mend"
       orient="auto"
       refY="0"
       refX="0"
       id="Arrow2Mend-9"
       style="overflow:visible">
      <path
         id="path8911-4"
         style="fill-rule:evenodd;stroke-width:0.625;stroke-linejoin:round"
         d="M 8.719,4.034 -2.207,0.016 8.719,-4.002 c -1.746,2.372 -1.736,5.618 0,8.036 z"
         transform="scale(-0.6,-0.6)"
         inkscape:connector-curvature="0" />
    </marker>
    <marker
       inkscape:stockid="Arrow2Mend"
       orient="auto"
       refY="0"
       refX="0"
       id="marker5153"
       style="overflow:visible">
      <path
         id="path5155"
         style="fill-rule:evenodd;stroke-width:0.625;stroke-linejoin:round"
         d="M 8.719,4.034 -2.207,0.016 8.719,-4.002 c -1.746,2.372 -1.736,5.618 0,8.036 z"
         transform="scale(-0.6,-0.6)"
         inkscape:connector-curvature="0" />
    </marker>
    <marker
       inkscape:stockid="Arrow2Mend"
       orient="auto"
       refY="0"
       refX="0"
       id="Arrow2Mend-5"
       style="overflow:visible">
      <path
         id="path8911-5"
         style="fill-rule:evenodd;stroke-width:0.625;stroke-linejoin:round"
         d="M 8.719,4.034 -2.207,0.016 8.719,-4.002 c -1.746,2.372 -1.736,5.618 0,8.036 z"
         transform="scale(-0.6,-0.6)"
         inkscape:connector-curvature="0" />
    </marker>
    <marker
       inkscape:stockid="Arrow2Mend"
       orient="auto"
       refY="0"
       refX="0"
       id="marker18911"
       style="overflow:visible">
      <path
         id="path18913"
         style="fill-rule:evenodd;stroke-width:0.625;stroke-linejoin:round"
         d="M 8.719,4.034 -2.207,0.016 8.719,-4.002 c -1.746,2.372 -1.736,5.618 0,8.036 z"
         transform="scale(-0.6,-0.6)"
         inkscape:connector-curvature="0" />
    </marker>
    <marker
       inkscape:stockid="Arrow2Mend"
       orient="auto"
       refY="0"
       refX="0"
       id="marker18915"
       style="overflow:visible">
      <path
         id="path18917"
         style="fill-rule:evenodd;stroke-width:0.625;stroke-linejoin:round"
         d="M 8.719,4.034 -2.207,0.016 8.719,-4.002 c -1.746,2.372 -1.736,5.618 0,8.036 z"
         transform="scale(-0.6,-0.6)"
         inkscape:connector-curvature="0" />
    </marker>
    <marker
       inkscape:stockid="Arrow2Mend"
       orient="auto"
       refY="0"
       refX="0"
       id="marker18919"
       style="overflow:visible">
      <path
         id="path18921"
         style="fill-rule:evenodd;stroke-width:0.625;stroke-linejoin:round"
         d="M 8.719,4.034 -2.207,0.016 8.719,-4.002 c -1.746,2.372 -1.736,5.618 0,8.036 z"
         transform="scale(-0.6,-0.6)"
         inkscape:connector-curvature="0" />
    </marker>
    <marker
       inkscape:stockid="Arrow2Mend"
       orient="auto"
       refY="0"
       refX="0"
       id="marker18919-2"
       style="overflow:visible">
      <path
         id="path18921-9"
         style="fill-rule:evenodd;stroke-width:0.625;stroke-linejoin:round"
         d="M 8.719,4.034 -2.207,0.016 8.719,-4.002 c -1.746,2.372 -1.736,5.618 0,8.036 z"
         transform="scale(-0.6,-0.6)"
         inkscape:connector-curvature="0" />
    </marker>
    <marker
       inkscape:stockid="Arrow2Mend"
       orient="auto"
       refY="0"
       refX="0"
       id="marker18919-9"
       style="overflow:visible">
      <path
         id="path18921-1"
         style="fill-rule:evenodd;stroke-width:0.625;stroke-linejoin:round"
         d="M 8.719,4.034 -2.207,0.016 8.719,-4.002 c -1.746,2.372 -1.736,5.618 0,8.036 z"
         transform="scale(-0.6,-0.6)"
         inkscape:connector-curvature="0" />
    </marker>
  </defs>
  <sodipodi:namedview
     pagecolor="#ffffff"
     bordercolor="#666666"
     borderopacity="1"
     objecttolerance="10"
     gridtolerance="10"
     guidetolerance="10"
     inkscape:pageopacity="0"
     inkscape:pageshadow="2"
     inkscape:window-width="1440"
     inkscape:window-height="808"
     id="ValentinaMeasurements"
     showgrid="false"
     inkscape:zoom="3.0100122"
     inkscape:cx="258.52869"
     inkscape:cy="28.364624"
     inkscape:window-x="0"
     inkscape:window-y="0"
     inkscape:window-maximized="1"
     inkscape:current-layer="g19358"
     fit-margin-left="0"
     fit-margin-top="0"
     fit-margin-right="0"
     fit-margin-bottom="0"
     units="in"
     showguides="true"
     inkscape:guide-bbox="true" />
  <g
     inkscape:groupmode="layer"
     id="layer1"
     inkscape:label="Base"
     style="display:inline"
     transform="translate(-1614.6904,-1574.8572)"
     sodipodi:insensitive="true">
    <rect
       style="fill:#ffffff;fill-opacity:1"
       id="rect5160"
       width="2250"
       height="6390"
       x="-84.860001"
       y="1455" />
  </g>
  <g
     inkscape:groupmode="layer"
     id="layer2"
     inkscape:label="Graphics"
     style="display:inline"
     transform="translate(-1614.6904,-1574.8572)">
    <g
       id="g19358"
       transform="matrix(0.8062,0,0,0.8062,265.88124,-3448.4168)">
      <path
         sodipodi:nodetypes="cc"
         inkscape:connector-curvature="0"
         id="path7494-1-6-3-5-8-3-9-5-7-2-4-5-7"
         d="m 2117,6730 9,-364"
         style="fill:none;stroke:#dba981;stroke-width:3.10800004;stroke-linecap:butt;stroke-linejoin:miter;stroke-miterlimit:4;stroke-dasharray:9.324, 3.108;stroke-dashoffset:0;stroke-opacity:1;marker-start:url(#marker7359);marker-end:url(#marker7359)" />
      <path
         sodipodi:nodetypes="cac"
         inkscape:connector-curvature="0"
         id="path3992-4-65-7-0-2-8"
         d="m 2033,6375 c 13,3 18,-1 26,-5 10,-4 19,-16 26,-18"
         style="fill:none;stroke:#dba981;stroke-width:1.48899996;stroke-linecap:round;stroke-linejoin:round;stroke-miterlimit:4;stroke-dasharray:4.467, 1.489;stroke-dashoffset:0;stroke-opacity:1" />
      <path
         id="path6025-2-9-9"
         d="m 2097,7064 c 0,6 4,16 1,20 -3,4 -16,3 -24,5 -5,1 -10,3 -15,4 -13,2 -25,3 -38,3 -7,0 -13,0 -20,-1 -7,0 -19,5 -22,-4 -1,-6 9,-6 13,-8 12,-8 25,-15 38,-22 6,-4 15,-6 18,-12 6,-15 5,-33 4,-46 -3,-22 -9,-69 -11,-105 1,-10 -1,-7 -10,-35 -6,-16 -18,-62 -22,-78 -10,-35 -1,-84 -4,-119 -11,-27 -3,-29 -5,-72 0,-20 -7,-47 -7,-64 0,-8 2,-16 2,-24 0,-11 -2,-27 -5,-34 -3,-7 4,-24 7,-32 3,-5 22,-42 36,-64 -1,-6 -6,-20 -10,-24 -6,-6 -16,-1 -23,-3 -3,-1 -6,-2 -7,-4 -1,-2 -1,-7 -1,-10 0,-1 1,-3 0,-4 0,-1 -2,-2 -2,-3 0,-1 2,-2 2,-4 0,-1 -2,-1 -2,-2 0,-2 2,-5 1,-7 -1,-2 -5,-2 -7,-4 -5,-3 9,-18 10,-21 1,-3 2,-6 2,-9 1,-6 1,-13 4,-19 2,-5 5,-8 8,-12 2,-1 3,-2 4,-3 8,-5 17,-10 26,-11 12,-3 26,-3 38,1 10,4 19,10 25,18 15,31 -5,52 -19,73 -4,9 2,23 7,30 8,15 27,34 32,58 7,20 -3,46 -6,70 -3,21 -8,50 -11,63 -3,11 -6,13 -5,24 1,12 5,26 9,37 10,24 11,41 7,61 -4,20 -14,25 -14,25 l -3,39 c 0,0 -5,50 -8,75 -2,15 -8,27 -6,44 1,6 12,36 13,41 3,16 5,27 6,43 3,38 -13,77 -9,115 0,4 3,5 3,11 z"
         style="fill:none;stroke:#dba981;stroke-width:3.72099996;stroke-linecap:round;stroke-linejoin:miter;stroke-miterlimit:4;stroke-dasharray:none;stroke-opacity:1"
         inkscape:connector-curvature="0"
         sodipodi:nodetypes="ssaaaacacccccscccassccasscccccccsscscsccccacsssccacccas" />
      <path
         sodipodi:nodetypes="ssscs"
         inkscape:connector-curvature="0"
         id="path3009-6-3-6-2-4-8"
         d="m 2044,6414 c -1,42 6,57 21,58 17,1 22,-20 20,-49 0,-7 1,-27 -18,-25 -15,1 -23,6 -23,16 z"
         style="fill:none;stroke:#dba981;stroke-width:3.72099996;stroke-linecap:round;stroke-linejoin:miter;stroke-miterlimit:4;stroke-dasharray:none;stroke-opacity:1" />
      <path
         sodipodi:nodetypes="cc"
         inkscape:connector-curvature="0"
         id="path3992-4-9-7-2-6-4-7"
         d="m 2062,6369 c 1,5 -1,10 2,25"
         style="fill:none;stroke:#dba981;stroke-width:1.48899996;stroke-linecap:round;stroke-linejoin:round;stroke-miterlimit:4;stroke-dasharray:4.467, 1.489;stroke-dashoffset:0;stroke-opacity:1" />
      <path
         style="fill:none;stroke:#dba981;stroke-width:1.48899996;stroke-linecap:round;stroke-linejoin:miter;stroke-miterlimit:4;stroke-dasharray:4.467, 1.489;stroke-dashoffset:0;stroke-opacity:1"
         d="m 1996,6571 103,0"
         id="path3992-4-77-9-5-7-1-2-9-8-8-6-2-3-8-7"
         inkscape:connector-curvature="0"
         sodipodi:nodetypes="cc" />
      <path
         style="fill:none;stroke:#dba981;stroke-width:1.48899996;stroke-linecap:round;stroke-linejoin:miter;stroke-miterlimit:4;stroke-dasharray:4.467, 1.489;stroke-dashoffset:0;stroke-opacity:1"
         d="m 2000,6596 101,0"
         id="path3992-4-77-9-5-7-1-2-9-8-8-6-2-3-8-7-3"
         inkscape:connector-curvature="0"
         sodipodi:nodetypes="cc" />
      <path
         style="fill:none;stroke:#dba981;stroke-width:1.48899996;stroke-linecap:round;stroke-linejoin:miter;stroke-miterlimit:4;stroke-dasharray:4.467, 1.489;stroke-dashoffset:0;stroke-opacity:1"
         d="m 1993,6474 123,0"
         id="path3992-4-77-9-5-7-1-2-9-8-8-6-2-3-8-7-8"
         inkscape:connector-curvature="0"
         sodipodi:nodetypes="cc" />
      <path
         style="fill:none;stroke:#dba981;stroke-width:3.10800004;stroke-linecap:butt;stroke-linejoin:miter;stroke-miterlimit:4;stroke-dasharray:9.324, 3.108;stroke-dashoffset:0;stroke-opacity:1;marker-start:url(#marker7359);marker-end:url(#marker7359)"
         d="m 2103,7086 -1,-74"
         id="path7494-1-6-3-5-8-3-9-5-7-2-4-5-7-5"
         inkscape:connector-curvature="0"
         sodipodi:nodetypes="cc" />
      <g
         id="measurement-group-c-3"
         inkscape:label="measurement">
        <path
           style="fill:none;stroke:#000000;stroke-width:3;stroke-linecap:round;stroke-linejoin:miter;stroke-miterlimit:4;stroke-dasharray:none;stroke-dashoffset:0;stroke-opacity:1"
           d="m 2093,7048 10,0"
           id="path3833-4-0-8-2-6-6-9-6-7-1-6-5-1"
           inkscape:connector-curvature="0"
           sodipodi:nodetypes="cc" />
        <path
           transform="matrix(0.8943,0,0,0.8943,2078,7001)"
           sodipodi:open="true"
           sodipodi:end="6.278"
           sodipodi:start="0"
           d="M 77.75,50.32 A 20,20 0 0 1 57.775927,70.319983 20,20 0 0 1 37.750067,50.371853 20,20 0 0 1 57.672221,30.320151 20,20 0 0 1 77.749731,50.216294"
           sodipodi:ry="20"
           sodipodi:rx="20"
           sodipodi:cy="50.32"
           sodipodi:cx="57.75"
           id="path4050-8-0-9-9-5-9-1-2-36-7-2-2-02-4-8"
           style="color:#000000;display:inline;overflow:visible;visibility:visible;fill:#ffffff;fill-opacity:1;stroke:#00000f;stroke-width:3;stroke-linecap:round;stroke-linejoin:miter;stroke-miterlimit:4;stroke-dasharray:none;stroke-dashoffset:0;stroke-opacity:0.94120029;marker:none;enable-background:accumulate"
           sodipodi:type="arc" />
      </g>
      <text
         xml:space="preserve"
         style="font-style:normal;font-variant:normal;font-weight:normal;font-stretch:normal;font-size:18px;line-height:125%;font-family:'Standard Symbols L';-inkscape-font-specification:'Standard Symbols L';text-align:start;letter-spacing:0px;word-spacing:0px;writing-mode:lr-tb;text-anchor:start;fill:#000000;fill-opacity:1;stroke:none"
         x="2125.3799"
         y="7052.0581"
         id="text16546-6-0-0"
         sodipodi:linespacing="125%"><tspan
           sodipodi:role="line"
           id="tspan16548-6-9-2"
           x="2125.3799"
           y="7052.0581">3</tspan></text>
      <g
         id="measurement-group-c-2"
         inkscape:label="measurement">
        <path
           sodipodi:type="arc"
           style="color:#000000;display:inline;overflow:visible;visibility:visible;fill:#ffffff;fill-opacity:1;stroke:#00000f;stroke-width:3;stroke-linecap:round;stroke-linejoin:miter;stroke-miterlimit:4;stroke-dasharray:none;stroke-dashoffset:0;stroke-opacity:0.94120029;marker:none;enable-background:accumulate"
           id="path4050-8-0-9-9-5-9-1-2-36-7-2-2-02-4"
           sodipodi:cx="57.75"
           sodipodi:cy="50.32"
           sodipodi:rx="20"
           sodipodi:ry="20"
           d="M 77.75,50.32 A 20,20 0 0 1 57.775927,70.319983 20,20 0 0 1 37.750067,50.371853 20,20 0 0 1 57.672221,30.320151 20,20 0 0 1 77.749731,50.216294"
           sodipodi:start="0"
           sodipodi:end="6.278"
           sodipodi:open="true"
           transform="matrix(0.8943,0,0,0.8943,2095,6523)" />
        <path
           sodipodi:nodetypes="cc"
           inkscape:connector-curvature="0"
           id="path3833-4-0-8-2-6-6-9-6-7-1-6-5"
           d="m 2099,6571 24,0"
           style="fill:none;stroke:#000000;stroke-width:3;stroke-linecap:round;stroke-linejoin:miter;stroke-miterlimit:4;stroke-dasharray:none;stroke-dashoffset:0;stroke-opacity:1" />
      </g>
    </g>
    <g
       id="g7835"
       transform="matrix(0.8062,0,0,0.8062,1417.7798,-2185.1014)"
       style="stroke-linecap:round">
      <g
         transform="translate(-1405,3554)"
         id="g9696"
         style="stroke-linecap:round">
        <g
           id="g8324"
           transform="translate(-59.6,-10.97)"
           style="stroke-linecap:round">
          <path
             sodipodi:nodetypes="ccc"
             inkscape:connector-curvature="0"
             id="path3817-0-0-8-8-2-3"
             d="m 1945,1275 -58,0 -44,-31"
             style="fill:none;stroke:#dba981;stroke-width:1.48899996;stroke-linecap:round;stroke-linejoin:miter;stroke-miterlimit:4;stroke-dasharray:4.467, 1.489;stroke-dashoffset:0;stroke-opacity:1" />
          <path
             sodipodi:nodetypes="cc"
             inkscape:connector-curvature="0"
             id="path3825-3-1-7-6-9-9"
             d="m 1840,1314 c 10,3 75,3 96,0"
             style="fill:none;stroke:#dba981;stroke-width:1.48899996;stroke-linecap:round;stroke-linejoin:miter;stroke-miterlimit:4;stroke-dasharray:4.467, 1.489;stroke-dashoffset:0;stroke-opacity:1" />
          <path
             sodipodi:nodetypes="cc"
             inkscape:connector-curvature="0"
             id="path3829-9-1-8-0-2-1"
             d="m 1843,1383 c 32,-1 65,0 83,-8"
             style="fill:none;stroke:#dba981;stroke-width:1.48899996;stroke-linecap:round;stroke-linejoin:miter;stroke-miterlimit:4;stroke-dasharray:4.467, 1.489;stroke-dashoffset:0;stroke-opacity:1" />
          <path
             sodipodi:nodetypes="csc"
             inkscape:connector-curvature="0"
             id="path3992-4-65-7-57-2-6"
             d="m 1871,1182 c 12,0 21,-4 27,-8 7,-4 14,-10 22,-10"
             style="fill:none;stroke:#dba981;stroke-width:1.48899996;stroke-linecap:round;stroke-linejoin:miter;stroke-miterlimit:4;stroke-dasharray:4.467, 1.489;stroke-dashoffset:0;stroke-opacity:1" />
          <path
             sodipodi:nodetypes="cc"
             inkscape:connector-curvature="0"
             id="path3003-1-9-5-3-1-1"
             d="m 1945,1283 c -5,-1 -118,-1 -122,0"
             style="fill:none;stroke:#dba981;stroke-width:1.48899996;stroke-linecap:round;stroke-linejoin:miter;stroke-miterlimit:4;stroke-dasharray:4.467, 1.489;stroke-dashoffset:0;stroke-opacity:1" />
          <path
             sodipodi:nodetypes="cc"
             inkscape:connector-curvature="0"
             id="path2993-6-5-5-4-9-0"
             d="m 1901,1272 0,108"
             style="fill:none;stroke:#dba981;stroke-width:1.48899996;stroke-linecap:round;stroke-linejoin:miter;stroke-miterlimit:4;stroke-dasharray:4.467, 1.489;stroke-dashoffset:0;stroke-opacity:1" />
          <path
             inkscape:connector-curvature="0"
             id="path15458"
             d="m 1843,1383 c 0,-11 -4,-22 -5,-33 0,-12 5,-29 3,-37 -9,-8 -17,-21 -17,-34 0,-13 15,-30 19,-37 2,-6 24,-40 27,-62 1,-7 1,-17 -2,-22 23,0 31,-8 45,-19 3,9 6,21 8,24 14,7 26,45 29,70 5,48 -27,101 -24,143"
             style="fill:none;stroke:#dba981;stroke-width:3.72099996;stroke-linecap:round;stroke-linejoin:miter;stroke-miterlimit:4;stroke-dasharray:none;stroke-opacity:1"
             sodipodi:nodetypes="cccscacccac" />
          <path
             sodipodi:nodetypes="ssscs"
             inkscape:connector-curvature="0"
             id="path3009-6-3-6-9-0-8"
             d="m 1878,1212 c -1,42 6,57 21,58 17,1 22,-20 20,-49 0,-7 1,-27 -18,-25 -15,1 -23,6 -23,16 z"
             style="fill:none;stroke:#dba981;stroke-width:3.72099996;stroke-linecap:round;stroke-linejoin:miter;stroke-miterlimit:4;stroke-dasharray:none;stroke-opacity:1" />
          <path
             sodipodi:nodetypes="cc"
             inkscape:connector-curvature="0"
             id="path3992-4-9-7-2-4-5-2"
             d="m 1899,1173 c 1,5 2,6 -1,19"
             style="fill:none;stroke:#dba981;stroke-width:1.48899996;stroke-linecap:round;stroke-linejoin:miter;stroke-miterlimit:4;stroke-dasharray:4.467, 1.489;stroke-dashoffset:0;stroke-opacity:1" />
          <path
             sodipodi:nodetypes="cc"
             inkscape:connector-curvature="0"
             id="path15475-4-3"
             d="m 1953,1253 0,-90"
             style="fill:none;stroke:#dba981;stroke-width:3;stroke-linecap:butt;stroke-linejoin:miter;stroke-miterlimit:4;stroke-dasharray:9, 3;stroke-dashoffset:0;stroke-opacity:1" />
          <g
             id="measurement-group-c-1"
             inkscape:label="measurement">
            <path
               style="fill:none;stroke:#000000;stroke-width:2.68300009;stroke-linecap:round;stroke-linejoin:miter;stroke-miterlimit:4;stroke-dasharray:none;stroke-opacity:1"
               d="m 1921,1164 32,0"
               id="path15477-1-4"
               inkscape:connector-curvature="0"
               sodipodi:nodetypes="cc" />
            <path
               sodipodi:type="arc"
               style="color:#000000;display:inline;overflow:visible;visibility:visible;fill:#ffffff;fill-opacity:1;stroke:#00000f;stroke-width:3;stroke-linecap:round;stroke-linejoin:miter;stroke-miterlimit:4;stroke-dasharray:none;stroke-dashoffset:0;stroke-opacity:0.94120029;marker:none;enable-background:accumulate"
               id="path4050-8-0-9-9-5-9-1-2-36-7-5-1-1-8"
               sodipodi:cx="57.75"
               sodipodi:cy="50.32"
               sodipodi:rx="20"
               sodipodi:ry="20"
               d="M 77.75,50.32 A 20,20 0 0 1 57.775927,70.319983 20,20 0 0 1 37.750067,50.371853 20,20 0 0 1 57.672221,30.320151 20,20 0 0 1 77.749731,50.216294"
               sodipodi:start="0"
               sodipodi:end="6.278"
               sodipodi:open="true"
               transform="matrix(0.8943,0,0,0.8943,1893,1095)" />
          </g>
          <text
             sodipodi:linespacing="125%"
             id="text4052-9-9-4-5-1-5-54-9-0-8-78-7-7-1"
             y="1142.0001"
             x="1934.5088"
             style="font-style:normal;font-variant:normal;font-weight:normal;font-stretch:normal;font-size:12.52019978px;line-height:125%;font-family:'Nimbus Sans L';-inkscape-font-specification:'Nimbus Sans L';text-align:start;letter-spacing:0px;word-spacing:0px;writing-mode:lr-tb;text-anchor:start;fill:#000000;fill-opacity:1;stroke:none"
             xml:space="preserve"><tspan
               style="font-style:normal;font-variant:normal;font-weight:normal;font-stretch:normal;font-size:12.52019978px;line-height:125%;font-family:'Nimbus Sans L';-inkscape-font-specification:'Nimbus Sans L';text-align:start;writing-mode:lr-tb;text-anchor:start"
               y="1142.0001"
               x="1934.5088"
               id="tspan4054-2-4-9-3-7-5-3-9-3-0-6-4-3-7"
               sodipodi:role="line" /></text>
        </g>
      </g>
      <text
         sodipodi:linespacing="125%"
         id="text16522"
         y="4689.0884"
         x="475.48282"
         style="font-style:normal;font-variant:normal;font-weight:normal;font-stretch:normal;font-size:18px;line-height:125%;font-family:'Standard Symbols L';-inkscape-font-specification:'Standard Symbols L';text-align:start;letter-spacing:0px;word-spacing:0px;writing-mode:lr-tb;text-anchor:start;fill:#000000;fill-opacity:1;stroke:none"
         xml:space="preserve"><tspan
           y="4689.0884"
           x="475.48282"
           id="tspan16524"
           sodipodi:role="line">1</tspan></text>
    </g>
    <text
       transform="matrix(0.8062,0,0,0.8062,265.8812,-3448.4168)"
       sodipodi:linespacing="125%"
       id="text16546-6-0"
       y="6574.1753"
       x="2142.1458"
       style="display:inline;font-style:normal;font-variant:normal;font-weight:normal;font-stretch:normal;font-size:18px;line-height:125%;font-family:'Standard Symbols L';-inkscape-font-specification:'Standard Symbols L';text-align:start;letter-spacing:0px;word-spacing:0px;writing-mode:lr-tb;text-anchor:start;fill:#000000;fill-opacity:1;stroke:none"
       xml:space="preserve"><tspan
         y="6574.1753"
         x="2142.1458"
         id="tspan16548-6-9"
         sodipodi:role="line">2</tspan></text>
  </g>
</svg>
