<?xml version="1.0" encoding="UTF-8" standalone="no"?>
<!-- Created with Inkscape (http://www.inkscape.org/) -->

<svg
   xmlns:dc="http://purl.org/dc/elements/1.1/"
   xmlns:cc="http://creativecommons.org/ns#"
   xmlns:rdf="http://www.w3.org/1999/02/22-rdf-syntax-ns#"
   xmlns:svg="http://www.w3.org/2000/svg"
   xmlns="http://www.w3.org/2000/svg"
   xmlns:sodipodi="http://sodipodi.sourceforge.net/DTD/sodipodi-0.dtd"
   xmlns:inkscape="http://www.inkscape.org/namespaces/inkscape"
   id="svg2"
   version="1.1"
   inkscape:version="0.91 r13725"
   width="499.35406"
   height="500.72406"
   sodipodi:docname="k.svg"
   inkscape:export-filename="/home/susan/Documents/Valentina/Measurements/measurement-body-diagram_20150730_50dpi.png"
   inkscape:export-xdpi="50"
   inkscape:export-ydpi="50">
  <metadata
     id="metadata8">
    <rdf:RDF>
      <cc:Work
         rdf:about="">
        <dc:format>image/svg+xml</dc:format>
        <dc:type
           rdf:resource="http://purl.org/dc/dcmitype/StillImage" />
        <dc:title />
      </cc:Work>
    </rdf:RDF>
  </metadata>
  <defs
     id="defs">
    <marker
       inkscape:stockid="Arrow2Mend"
       orient="auto"
       refY="0"
       refX="0"
       id="Arrow2Mend"
       style="overflow:visible">
      <path
         id="path8911"
         style="fill-rule:evenodd;stroke-width:0.625;stroke-linejoin:round"
         d="M 8.719,4.034 -2.207,0.016 8.719,-4.002 c -1.746,2.372 -1.736,5.618 0,8.036 z"
         transform="scale(-0.6,-0.6)"
         inkscape:connector-curvature="0" />
    </marker>
    <marker
       inkscape:stockid="Arrow1Lend"
       orient="auto"
       refY="0"
       refX="0"
       id="Arrow1Lend"
       style="overflow:visible">
      <path
         id="path8887"
         d="M 0,0 5,-5 -12.5,0 5,5 0,0 Z"
         style="fill-rule:evenodd;stroke:#000000;stroke-width:1pt"
         transform="matrix(-0.8,0,0,-0.8,-10,0)"
         inkscape:connector-curvature="0" />
    </marker>
    <marker
       inkscape:stockid="DotS"
       orient="auto"
       refY="0"
       refX="0"
       id="DotS"
       style="overflow:visible">
      <path
         id="path6414"
         d="m -2.5,-1 c 0,2.76 -2.24,5 -5,5 -2.76,0 -5,-2.24 -5,-5 0,-2.76 2.24,-5 5,-5 2.76,0 5,2.24 5,5 z"
         style="fill-rule:evenodd;stroke:#000000;stroke-width:1pt"
         transform="matrix(0.2,0,0,0.2,1.48,0.2)"
         inkscape:connector-curvature="0" />
    </marker>
    <marker
       inkscape:stockid="Arrow2Mend"
       orient="auto"
       refY="0"
       refX="0"
       id="Arrow2Mend-1"
       style="overflow:visible">
      <path
         id="path8911-8"
         style="fill-rule:evenodd;stroke-width:0.625;stroke-linejoin:round"
         d="M 8.719,4.034 -2.207,0.016 8.719,-4.002 c -1.746,2.372 -1.736,5.618 0,8.036 z"
         transform="scale(-0.6,-0.6)"
         inkscape:connector-curvature="0" />
    </marker>
    <marker
       inkscape:stockid="Arrow2Mend"
       orient="auto"
       refY="0"
       refX="0"
       id="marker8958"
       style="overflow:visible">
      <path
         id="path8960"
         style="fill-rule:evenodd;stroke-width:0.625;stroke-linejoin:round"
         d="M 8.719,4.034 -2.207,0.016 8.719,-4.002 c -1.746,2.372 -1.736,5.618 0,8.036 z"
         transform="scale(-0.6,-0.6)"
         inkscape:connector-curvature="0" />
    </marker>
    <marker
       inkscape:stockid="Arrow2Mend"
       orient="auto"
       refY="0"
       refX="0"
       id="marker8958-1"
       style="overflow:visible">
      <path
         id="path8960-5"
         style="fill-rule:evenodd;stroke-width:0.625;stroke-linejoin:round"
         d="M 8.719,4.034 -2.207,0.016 8.719,-4.002 c -1.746,2.372 -1.736,5.618 0,8.036 z"
         transform="scale(-0.6,-0.6)"
         inkscape:connector-curvature="0" />
    </marker>
    <marker
       inkscape:stockid="Arrow2Mend"
       orient="auto"
       refY="0"
       refX="0"
       id="marker8958-0"
       style="overflow:visible">
      <path
         id="path8960-7"
         style="fill-rule:evenodd;stroke-width:0.625;stroke-linejoin:round"
         d="M 8.719,4.034 -2.207,0.016 8.719,-4.002 c -1.746,2.372 -1.736,5.618 0,8.036 z"
         transform="scale(-0.6,-0.6)"
         inkscape:connector-curvature="0" />
    </marker>
    <marker
       inkscape:stockid="Arrow2Mend"
       orient="auto"
       refY="0"
       refX="0"
       id="marker14967"
       style="overflow:visible">
      <path
         id="path14969"
         style="fill-rule:evenodd;stroke-width:0.625;stroke-linejoin:round"
         d="M 8.719,4.034 -2.207,0.016 8.719,-4.002 c -1.746,2.372 -1.736,5.618 0,8.036 z"
         transform="scale(-0.6,-0.6)"
         inkscape:connector-curvature="0" />
    </marker>
    <marker
       inkscape:stockid="Arrow2Mend"
       orient="auto"
       refY="0"
       refX="0"
       id="Arrow2Mend-2"
       style="overflow:visible">
      <path
         id="path8911-1"
         style="fill-rule:evenodd;stroke-width:0.625;stroke-linejoin:round"
         d="M 8.719,4.034 -2.207,0.016 8.719,-4.002 c -1.746,2.372 -1.736,5.618 0,8.036 z"
         transform="scale(-0.6,-0.6)"
         inkscape:connector-curvature="0" />
    </marker>
    <marker
       inkscape:stockid="Arrow2Mend"
       orient="auto"
       refY="0"
       refX="0"
       id="marker11940"
       style="overflow:visible">
      <path
         id="path11942"
         style="fill-rule:evenodd;stroke-width:0.625;stroke-linejoin:round"
         d="M 8.719,4.034 -2.207,0.016 8.719,-4.002 c -1.746,2.372 -1.736,5.618 0,8.036 z"
         transform="scale(-0.6,-0.6)"
         inkscape:connector-curvature="0" />
    </marker>
    <marker
       inkscape:stockid="Arrow2Mend"
       orient="auto"
       refY="0"
       refX="0"
       id="Arrow2Mend-9"
       style="overflow:visible">
      <path
         id="path8911-4"
         style="fill-rule:evenodd;stroke-width:0.625;stroke-linejoin:round"
         d="M 8.719,4.034 -2.207,0.016 8.719,-4.002 c -1.746,2.372 -1.736,5.618 0,8.036 z"
         transform="scale(-0.6,-0.6)"
         inkscape:connector-curvature="0" />
    </marker>
    <marker
       inkscape:stockid="Arrow2Mend"
       orient="auto"
       refY="0"
       refX="0"
       id="marker5153"
       style="overflow:visible">
      <path
         id="path5155"
         style="fill-rule:evenodd;stroke-width:0.625;stroke-linejoin:round"
         d="M 8.719,4.034 -2.207,0.016 8.719,-4.002 c -1.746,2.372 -1.736,5.618 0,8.036 z"
         transform="scale(-0.6,-0.6)"
         inkscape:connector-curvature="0" />
    </marker>
    <marker
       inkscape:stockid="Arrow2Mend"
       orient="auto"
       refY="0"
       refX="0"
       id="Arrow2Mend-5"
       style="overflow:visible">
      <path
         id="path8911-5"
         style="fill-rule:evenodd;stroke-width:0.625;stroke-linejoin:round"
         d="M 8.719,4.034 -2.207,0.016 8.719,-4.002 c -1.746,2.372 -1.736,5.618 0,8.036 z"
         transform="scale(-0.6,-0.6)"
         inkscape:connector-curvature="0" />
    </marker>
    <marker
       inkscape:stockid="Arrow2Mend"
       orient="auto"
       refY="0"
       refX="0"
       id="marker18911"
       style="overflow:visible">
      <path
         id="path18913"
         style="fill-rule:evenodd;stroke-width:0.625;stroke-linejoin:round"
         d="M 8.719,4.034 -2.207,0.016 8.719,-4.002 c -1.746,2.372 -1.736,5.618 0,8.036 z"
         transform="scale(-0.6,-0.6)"
         inkscape:connector-curvature="0" />
    </marker>
    <marker
       inkscape:stockid="Arrow2Mend"
       orient="auto"
       refY="0"
       refX="0"
       id="marker18915"
       style="overflow:visible">
      <path
         id="path18917"
         style="fill-rule:evenodd;stroke-width:0.625;stroke-linejoin:round"
         d="M 8.719,4.034 -2.207,0.016 8.719,-4.002 c -1.746,2.372 -1.736,5.618 0,8.036 z"
         transform="scale(-0.6,-0.6)"
         inkscape:connector-curvature="0" />
    </marker>
    <marker
       inkscape:stockid="Arrow2Mend"
       orient="auto"
       refY="0"
       refX="0"
       id="marker18919"
       style="overflow:visible">
      <path
         id="path18921"
         style="fill-rule:evenodd;stroke-width:0.625;stroke-linejoin:round"
         d="M 8.719,4.034 -2.207,0.016 8.719,-4.002 c -1.746,2.372 -1.736,5.618 0,8.036 z"
         transform="scale(-0.6,-0.6)"
         inkscape:connector-curvature="0" />
    </marker>
    <marker
       inkscape:stockid="Arrow2Mend"
       orient="auto"
       refY="0"
       refX="0"
       id="marker18919-2"
       style="overflow:visible">
      <path
         id="path18921-9"
         style="fill-rule:evenodd;stroke-width:0.625;stroke-linejoin:round"
         d="M 8.719,4.034 -2.207,0.016 8.719,-4.002 c -1.746,2.372 -1.736,5.618 0,8.036 z"
         transform="scale(-0.6,-0.6)"
         inkscape:connector-curvature="0" />
    </marker>
    <marker
       inkscape:stockid="Arrow2Mend"
       orient="auto"
       refY="0"
       refX="0"
       id="marker18919-9"
       style="overflow:visible">
      <path
         id="path18921-1"
         style="fill-rule:evenodd;stroke-width:0.625;stroke-linejoin:round"
         d="M 8.719,4.034 -2.207,0.016 8.719,-4.002 c -1.746,2.372 -1.736,5.618 0,8.036 z"
         transform="scale(-0.6,-0.6)"
         inkscape:connector-curvature="0" />
    </marker>
  </defs>
  <sodipodi:namedview
     pagecolor="#ffffff"
     bordercolor="#666666"
     borderopacity="1"
     objecttolerance="10"
     gridtolerance="10"
     guidetolerance="10"
     inkscape:pageopacity="0"
     inkscape:pageshadow="2"
     inkscape:window-width="1440"
     inkscape:window-height="808"
     id="ValentinaMeasurements"
     showgrid="false"
     inkscape:zoom="1.0642"
     inkscape:cx="307.37708"
     inkscape:cy="137.3551"
     inkscape:window-x="0"
     inkscape:window-y="0"
     inkscape:window-maximized="1"
     inkscape:current-layer="layer2"
     fit-margin-left="0"
     fit-margin-top="0"
     fit-margin-right="0"
     fit-margin-bottom="0"
     units="in"
     showguides="true"
     inkscape:guide-bbox="true" />
  <g
     inkscape:groupmode="layer"
     id="layer1"
     inkscape:label="Base"
     style="display:inline"
     transform="translate(-1317.0037,-5122.4306)"
     sodipodi:insensitive="true">
    <rect
       style="fill:#ffffff;fill-opacity:1"
       id="rect5160"
       width="2250"
       height="6390"
       x="-84.860001"
       y="1455" />
  </g>
  <g
     inkscape:groupmode="layer"
     id="layer2"
     inkscape:label="Graphics"
     style="display:inline"
     transform="translate(-1317.0037,-5122.4306)">
    <g
       id="g18356"
       transform="matrix(0.8062,0,0,0.8062,-290.64868,2351.2841)">
      <g
         id="measurement-group-k-4"
         inkscape:label="measurement">
        <path
           sodipodi:nodetypes="cc"
           inkscape:connector-curvature="0"
           id="path7494-1-6-3-5-8-3-9-0-3-4"
           d="m 2062,3941 11,-163"
           style="fill:none;stroke:#000000;stroke-width:3;stroke-linecap:round;stroke-linejoin:miter;stroke-miterlimit:4;stroke-dasharray:none;stroke-opacity:1;marker-start:url(#marker7359);marker-end:url(#marker7359)" />
        <path
           sodipodi:type="arc"
           style="color:#000000;display:inline;overflow:visible;visibility:visible;fill:#ffffff;fill-opacity:1;stroke:#00000f;stroke-width:3;stroke-linecap:round;stroke-linejoin:miter;stroke-miterlimit:4;stroke-dasharray:none;stroke-dashoffset:0;stroke-opacity:0.94120029;marker:none;enable-background:accumulate"
           id="path4050-8-0-9-9-5-9-1-5-2-4-1"
           sodipodi:cx="57.75"
           sodipodi:cy="50.32"
           sodipodi:rx="20"
           sodipodi:ry="20"
           d="M 77.75,50.32 A 20,20 0 0 1 57.775927,70.319983 20,20 0 0 1 37.750067,50.371853 20,20 0 0 1 57.672221,30.320151 20,20 0 0 1 77.749731,50.216294"
           sodipodi:start="0"
           sodipodi:end="6.278"
           sodipodi:open="true"
           transform="matrix(0.8943,0,0,0.8943,2012,3827)" />
      </g>
      <text
         sodipodi:linespacing="125%"
         id="text18011"
         y="3877.7256"
         x="2059.4221"
         style="font-style:normal;font-variant:normal;font-weight:normal;font-stretch:normal;font-size:18px;line-height:125%;font-family:'Standard Symbols L';-inkscape-font-specification:'Standard Symbols L';text-align:start;letter-spacing:0px;word-spacing:0px;writing-mode:lr-tb;text-anchor:start;fill:#000000;fill-opacity:1;stroke:none"
         xml:space="preserve"><tspan
           y="3877.7256"
           x="2059.4221"
           id="tspan18013"
           sodipodi:role="line">4</tspan></text>
      <path
         style="fill:none;stroke:#dba981;stroke-width:1.48899996;stroke-linecap:round;stroke-linejoin:miter;stroke-miterlimit:4;stroke-dasharray:4.467, 1.489;stroke-dashoffset:0;stroke-opacity:1"
         d="m 2136,3845 c -9,0 -22,99 -7,101"
         id="path3833-4-2-4-5-8-1-1"
         inkscape:connector-curvature="0"
         sodipodi:nodetypes="cc" />
      <path
         inkscape:connector-curvature="0"
         style="fill:none;stroke:#dba981;stroke-width:3.72099996;stroke-linecap:round;stroke-linejoin:miter;stroke-miterlimit:4;stroke-dasharray:none;stroke-opacity:1"
         d="m 2038,3766 c -17,38 -43,80 -42,118 0,22 5,34 28,50 23,15 97,12 97,12 0,0 63,6 96,8 l 14,2 c -2,9 -6,17 -9,26"
         id="path17285-4"
         sodipodi:nodetypes="ccccccc" />
      <path
         inkscape:connector-curvature="0"
         style="fill:none;stroke:#dba981;stroke-width:3.72099996;stroke-linecap:round;stroke-linejoin:miter;stroke-miterlimit:4;stroke-dasharray:none;stroke-opacity:1"
         d="m 2288,3971 c 1,-9 8,-23 8,-34 1,-13 9,-30 -6,-38 -7,-4 -37,-16 -56,-23 -38,-13 -75,-29 -115,-33"
         id="path7701-1" />
      <path
         sodipodi:nodetypes="cc"
         inkscape:connector-curvature="0"
         id="path3829-9-1-88-5-6"
         d="m 2131,3776 c -35,-1 -72,4 -92,-5"
         style="fill:none;stroke:#dba981;stroke-width:2;stroke-linecap:round;stroke-linejoin:miter;stroke-miterlimit:4;stroke-dasharray:6, 2;stroke-dashoffset:0;stroke-opacity:1" />
      <path
         sodipodi:nodetypes="cc"
         style="fill:none;stroke:#dba981;stroke-width:3.72099996;stroke-linecap:round;stroke-linejoin:miter;stroke-miterlimit:4;stroke-dasharray:none;stroke-opacity:1"
         d="m 2132,3845 c 2,-11 -2,-57 -2,-67"
         id="path17963-8"
         inkscape:connector-curvature="0" />
      <g
         id="measurement-group-k-5"
         inkscape:label="measurement">
        <path
           sodipodi:nodetypes="cc"
           inkscape:connector-curvature="0"
           id="path7494-1-6-3-5-8-3-9-0-3-4-7"
           d="m 2127,3945 -53,-167"
           style="fill:none;stroke:#000000;stroke-width:3;stroke-linecap:round;stroke-linejoin:miter;stroke-miterlimit:4;stroke-dasharray:none;stroke-opacity:1;marker-start:url(#marker7359);marker-end:url(#marker7359)" />
        <path
           sodipodi:type="arc"
           style="color:#000000;display:inline;overflow:visible;visibility:visible;fill:#ffffff;fill-opacity:1;stroke:#00000f;stroke-width:3;stroke-linecap:round;stroke-linejoin:miter;stroke-miterlimit:4;stroke-dasharray:none;stroke-dashoffset:0;stroke-opacity:0.94120029;marker:none;enable-background:accumulate"
           id="path4050-8-0-9-9-5-9-1-5-2-4-1-7"
           sodipodi:cx="57.75"
           sodipodi:cy="50.32"
           sodipodi:rx="20"
           sodipodi:ry="20"
           d="M 77.75,50.32 A 20,20 0 0 1 57.775927,70.319983 20,20 0 0 1 37.750067,50.371853 20,20 0 0 1 57.672221,30.320151 20,20 0 0 1 77.749731,50.216294"
           sodipodi:start="0"
           sodipodi:end="6.278"
           sodipodi:open="true"
           transform="matrix(0.8943,0,0,0.8943,2052,3825)" />
      </g>
      <text
         sodipodi:linespacing="125%"
         id="text18011-63"
         y="3875.9055"
         x="2099.4932"
         style="font-style:normal;font-variant:normal;font-weight:normal;font-stretch:normal;font-size:18px;line-height:125%;font-family:'Standard Symbols L';-inkscape-font-specification:'Standard Symbols L';text-align:start;letter-spacing:0px;word-spacing:0px;writing-mode:lr-tb;text-anchor:start;fill:#000000;fill-opacity:1;stroke:none"
         xml:space="preserve"><tspan
           y="3875.9055"
           x="2099.4932"
           id="tspan18013-2"
           sodipodi:role="line">5</tspan></text>
    </g>
    <g
       id="g18101"
       transform="matrix(0.8062,0,0,0.8062,213.73423,2177.548)">
      <path
         sodipodi:nodetypes="cc"
         inkscape:connector-curvature="0"
         id="path3829-9-1-88-5-3-9-2-4"
         d="m 1967,3993 -45,0"
         style="fill:none;stroke:#dba981;stroke-width:3;stroke-linecap:butt;stroke-linejoin:miter;stroke-miterlimit:4;stroke-dasharray:9, 3;stroke-dashoffset:0;stroke-opacity:1" />
      <path
         sodipodi:nodetypes="cc"
         inkscape:connector-curvature="0"
         id="path3829-9-1-88-5-3-9-2-4-6"
         d="m 1828,3980 -90,0"
         style="fill:none;stroke:#dba981;stroke-width:3;stroke-linecap:butt;stroke-linejoin:miter;stroke-miterlimit:4;stroke-dasharray:9, 3;stroke-dashoffset:0;stroke-opacity:1" />
      <path
         style="fill:none;stroke:#dba981;stroke-width:3.72099996;stroke-linecap:round;stroke-linejoin:miter;stroke-miterlimit:4;stroke-dasharray:none;stroke-opacity:1"
         d="m 1828,3982 c -2,14 -10,24 -20,36 -18,21 -25,53 -24,82 0,22 24,62 24,62 0,0 -3,65 -4,97"
         id="path17970"
         inkscape:connector-curvature="0" />
      <path
         style="fill:none;stroke:#dba981;stroke-width:3.72099996;stroke-linecap:round;stroke-linejoin:miter;stroke-miterlimit:4;stroke-dasharray:none;stroke-opacity:1"
         d="m 1884,4272 c 12,-38 25,-76 28,-116 1,-22 -5,-42 -2,-67 2,-26 13,-49 14,-72 1,-10 -3,-21 -3,-31"
         id="path2997-1-2-9-0-7-6"
         inkscape:connector-curvature="0" />
      <path
         style="fill:none;stroke:#dba981;stroke-width:2;stroke-linecap:round;stroke-linejoin:miter;stroke-miterlimit:4;stroke-dasharray:6, 2;stroke-dashoffset:0;stroke-opacity:1"
         d="m 1920,3993 c -35,-1 -73,-3 -93,-12"
         id="path3829-9-1-88-5-3-9"
         inkscape:connector-curvature="0"
         sodipodi:nodetypes="cc" />
      <g
         id="measurement-group-k-7"
         inkscape:label="measurement">
        <path
           sodipodi:nodetypes="cc"
           inkscape:connector-curvature="0"
           id="path7494-1-6-3-5-8-3-9-0-3-4-9"
           d="m 1967,4148 0,-155"
           style="fill:none;stroke:#000000;stroke-width:3;stroke-linecap:round;stroke-linejoin:miter;stroke-miterlimit:4;stroke-dasharray:none;stroke-opacity:1;marker-start:url(#marker7359);marker-end:url(#marker7359)" />
        <path
           sodipodi:type="arc"
           style="color:#000000;display:inline;overflow:visible;visibility:visible;fill:#ffffff;fill-opacity:1;stroke:#00000f;stroke-width:3;stroke-linecap:round;stroke-linejoin:miter;stroke-miterlimit:4;stroke-dasharray:none;stroke-dashoffset:0;stroke-opacity:0.94120029;marker:none;enable-background:accumulate"
           id="path4050-8-0-9-9-5-9-1-5-2-4-1-8"
           sodipodi:cx="57.75"
           sodipodi:cy="50.32"
           sodipodi:rx="20"
           sodipodi:ry="20"
           d="M 77.75,50.32 A 20,20 0 0 1 57.775927,70.319983 20,20 0 0 1 37.750067,50.371853 20,20 0 0 1 57.672221,30.320151 20,20 0 0 1 77.749731,50.216294"
           sodipodi:start="0"
           sodipodi:end="6.278"
           sodipodi:open="true"
           transform="matrix(0.8943,0,0,0.8943,1917,4039)" />
      </g>
      <text
         sodipodi:linespacing="125%"
         id="text18011-8"
         y="4089.6404"
         x="1964.0092"
         style="font-style:normal;font-variant:normal;font-weight:normal;font-stretch:normal;font-size:18px;line-height:125%;font-family:'Standard Symbols L';-inkscape-font-specification:'Standard Symbols L';text-align:start;letter-spacing:0px;word-spacing:0px;writing-mode:lr-tb;text-anchor:start;fill:#000000;fill-opacity:1;stroke:none"
         xml:space="preserve"><tspan
           y="4089.6404"
           x="1964.0092"
           id="tspan18013-28"
           sodipodi:role="line">7</tspan></text>
      <g
         id="measurement-group-k-6"
         inkscape:label="measurement">
        <path
           sodipodi:nodetypes="cc"
           inkscape:connector-curvature="0"
           id="path7494-1-6-3-5-8-3-9-0-3-4-9-4"
           d="m 1739,4149 0,-169"
           style="fill:none;stroke:#000000;stroke-width:3;stroke-linecap:round;stroke-linejoin:miter;stroke-miterlimit:4;stroke-dasharray:none;stroke-opacity:1;marker-start:url(#marker7359);marker-end:url(#marker7359)" />
        <path
           sodipodi:type="arc"
           style="color:#000000;display:inline;overflow:visible;visibility:visible;fill:#ffffff;fill-opacity:1;stroke:#00000f;stroke-width:3;stroke-linecap:round;stroke-linejoin:miter;stroke-miterlimit:4;stroke-dasharray:none;stroke-dashoffset:0;stroke-opacity:0.94120029;marker:none;enable-background:accumulate"
           id="path4050-8-0-9-9-5-9-1-5-2-4-1-8-2"
           sodipodi:cx="57.75"
           sodipodi:cy="50.32"
           sodipodi:rx="20"
           sodipodi:ry="20"
           d="M 77.75,50.32 A 20,20 0 0 1 57.775927,70.319983 20,20 0 0 1 37.750067,50.371853 20,20 0 0 1 57.672221,30.320151 20,20 0 0 1 77.749731,50.216294"
           sodipodi:start="0"
           sodipodi:end="6.278"
           sodipodi:open="true"
           transform="matrix(0.8943,0,0,0.8943,1685,4026)" />
      </g>
      <text
         sodipodi:linespacing="125%"
         id="text18011-8-4"
         y="4076.5471"
         x="1731.9596"
         style="font-style:normal;font-variant:normal;font-weight:normal;font-stretch:normal;font-size:18px;line-height:125%;font-family:'Standard Symbols L';-inkscape-font-specification:'Standard Symbols L';text-align:start;letter-spacing:0px;word-spacing:0px;writing-mode:lr-tb;text-anchor:start;fill:#000000;fill-opacity:1;stroke:none"
         xml:space="preserve"><tspan
           y="4076.5471"
           x="1731.9596"
           id="tspan18013-28-7"
           sodipodi:role="line">6</tspan></text>
      <path
         sodipodi:nodetypes="cc"
         inkscape:connector-curvature="0"
         id="path3829-9-1-88-5-3-9-2"
         d="m 1965,4149 -226,0"
         style="fill:none;stroke:#dba981;stroke-width:3;stroke-linecap:butt;stroke-linejoin:miter;stroke-miterlimit:4;stroke-dasharray:9, 3;stroke-dashoffset:0;stroke-opacity:1" />
      <path
         sodipodi:nodetypes="csc"
         inkscape:connector-curvature="0"
         id="path7705-9"
         d="m 1786,4111 c 10,41 77,44 106,17 10,-10 15,-25 18,-38"
         style="fill:none;stroke:#dba981;stroke-width:1.48899996;stroke-linecap:round;stroke-linejoin:miter;stroke-miterlimit:4;stroke-dasharray:4.467, 1.489;stroke-dashoffset:0;stroke-opacity:1;marker-start:url(#marker7359);marker-end:url(#marker7359)" />
    </g>
    <g
       id="g9535"
       transform="matrix(0.8062,0,0,0.8062,194.2,1763)">
      <path
         style="fill:none;stroke:#dba981;stroke-width:3.72099996;stroke-linecap:round;stroke-linejoin:miter;stroke-miterlimit:4;stroke-dasharray:none;stroke-opacity:1"
         d="m 1454,4169 c -2,14 -10,24 -20,36 -18,21 -25,53 -24,82 0,22 24,62 24,62 0,0 -3,65 -4,97"
         id="path17970-2-6"
         inkscape:connector-curvature="0" />
      <path
         style="fill:none;stroke:#dba981;stroke-width:3.72099996;stroke-linecap:round;stroke-linejoin:miter;stroke-miterlimit:4;stroke-dasharray:none;stroke-opacity:1"
         d="m 1510,4459 c 12,-38 25,-76 28,-116 1,-22 -5,-42 -2,-67 2,-26 13,-49 14,-72 1,-10 -3,-21 -3,-31"
         id="path2997-1-2-9-0-7-6-7-6"
         inkscape:connector-curvature="0" />
      <path
         style="fill:none;stroke:#dba981;stroke-width:2;stroke-linecap:round;stroke-linejoin:miter;stroke-miterlimit:4;stroke-dasharray:6, 2;stroke-dashoffset:0;stroke-opacity:1"
         d="m 1545,4175 c -35,-1 -72,2 -92,-7"
         id="path3829-9-1-88-5-3-9-1-4"
         inkscape:connector-curvature="0"
         sodipodi:nodetypes="cc" />
      <path
         inkscape:connector-curvature="0"
         id="path7705-8-8"
         d="m 1427,4331 c 9,8 33,11 50,11 39,0 54,-33 57,-56"
         style="fill:none;stroke:#aaaaaa;stroke-width:2.5;stroke-linecap:butt;stroke-linejoin:miter;stroke-miterlimit:4;stroke-dasharray:7.5, 2.5;stroke-dashoffset:0;stroke-opacity:1;marker-start:url(#marker7359);marker-end:url(#marker7359)"
         sodipodi:nodetypes="csc" />
      <g
         id="measurement-group-k-1"
         inkscape:label="measurement">
        <path
           sodipodi:nodetypes="ccc"
           style="fill:none;stroke:#000000;stroke-width:3;stroke-linecap:round;stroke-linejoin:miter;stroke-miterlimit:4;stroke-dasharray:none;stroke-opacity:1;marker-start:url(#marker7359);marker-end:url(#marker7359)"
           d="m 1455,4169 c -6,20 -22,30 -34,57 -14,29 -28,68 4,104"
           id="path7707-7-4"
           inkscape:connector-curvature="0" />
        <path
           sodipodi:nodetypes="csc"
           style="fill:none;stroke:#000000;stroke-width:3;stroke-linecap:round;stroke-linejoin:miter;stroke-miterlimit:4;stroke-dasharray:none;stroke-opacity:1;marker-start:url(#marker7359);marker-end:url(#marker7359)"
           d="m 1535,4284 c 2,-12 7,-24 10,-38 6,-28 11,-56 4,-73"
           id="path7494-1-6-3-5-8-3-1-1-8-7-76-8"
           inkscape:connector-curvature="0" />
        <path
           sodipodi:type="arc"
           style="color:#000000;display:inline;overflow:visible;visibility:visible;fill:#ffffff;fill-opacity:1;stroke:#00000f;stroke-width:3;stroke-linecap:round;stroke-linejoin:miter;stroke-miterlimit:4;stroke-dasharray:none;stroke-dashoffset:0;stroke-opacity:0.94120029;marker:none;enable-background:accumulate"
           id="path4050-8-0-9-9-5-9-1-5-2-4-3"
           sodipodi:cx="57.75"
           sodipodi:cy="50.32"
           sodipodi:rx="20"
           sodipodi:ry="20"
           d="M 77.75,50.32 A 20,20 0 0 1 57.775927,70.319983 20,20 0 0 1 37.750067,50.371853 20,20 0 0 1 57.672221,30.320151 20,20 0 0 1 77.749731,50.216294"
           sodipodi:start="0"
           sodipodi:end="6.278"
           sodipodi:open="true"
           transform="matrix(0.8943,0,0,0.8943,1370,4182)" />
      </g>
      <text
         sodipodi:linespacing="125%"
         id="text18007"
         y="4232.5581"
         x="1416.972"
         style="font-style:normal;font-variant:normal;font-weight:normal;font-stretch:normal;font-size:18px;line-height:125%;font-family:'Standard Symbols L';-inkscape-font-specification:'Standard Symbols L';text-align:start;letter-spacing:0px;word-spacing:0px;writing-mode:lr-tb;text-anchor:start;fill:#000000;fill-opacity:1;stroke:none"
         xml:space="preserve"><tspan
           y="4232.5581"
           x="1416.972"
           id="tspan18009"
           sodipodi:role="line">1</tspan></text>
    </g>
    <g
       id="g10220"
       transform="matrix(0.8062,0,0,0.8062,194.2,1763)">
      <path
         style="fill:none;stroke:#dba981;stroke-width:3.72099996;stroke-linecap:round;stroke-linejoin:miter;stroke-miterlimit:4;stroke-dasharray:none;stroke-opacity:1"
         d="m 1859,4177 c -2,14 -10,24 -20,36 -18,21 -25,53 -24,82 0,22 24,62 24,62 0,0 -3,65 -4,97"
         id="path17970-2-6-9"
         inkscape:connector-curvature="0" />
      <path
         style="fill:none;stroke:#dba981;stroke-width:3.72099996;stroke-linecap:round;stroke-linejoin:miter;stroke-miterlimit:4;stroke-dasharray:none;stroke-opacity:1"
         d="m 1915,4467 c 12,-38 25,-76 28,-116 1,-22 -5,-42 -2,-67 2,-26 13,-49 14,-72 1,-10 -3,-21 -3,-31"
         id="path2997-1-2-9-0-7-6-7-6-9"
         inkscape:connector-curvature="0" />
      <path
         style="fill:none;stroke:#dba981;stroke-width:2;stroke-linecap:round;stroke-linejoin:miter;stroke-miterlimit:4;stroke-dasharray:6, 2;stroke-dashoffset:0;stroke-opacity:1"
         d="m 1950,4183 c -35,-1 -72,2 -92,-7"
         id="path3829-9-1-88-5-3-9-1-4-5"
         inkscape:connector-curvature="0"
         sodipodi:nodetypes="cc" />
      <path
         inkscape:connector-curvature="0"
         id="path7705-8-8-6"
         d="m 1832,4339 c 9,8 33,11 50,11 39,0 54,-33 57,-56"
         style="fill:none;stroke:#aaaaaa;stroke-width:2.5;stroke-linecap:butt;stroke-linejoin:miter;stroke-miterlimit:4;stroke-dasharray:7.5, 2.5;stroke-dashoffset:0;stroke-opacity:1;marker-start:url(#marker7359);marker-end:url(#marker7359)"
         sodipodi:nodetypes="csc" />
      <g
         id="measurement-group-k-2"
         inkscape:label="measurement">
        <path
           sodipodi:nodetypes="ccc"
           style="fill:none;stroke:#000000;stroke-width:3;stroke-linecap:round;stroke-linejoin:miter;stroke-miterlimit:4;stroke-dasharray:none;stroke-opacity:1;marker-start:url(#marker7359);marker-end:url(#marker7359)"
           d="m 1860,4177 c -6,20 -22,30 -34,57 -14,29 -28,68 4,104"
           id="path7707-7-4-2"
           inkscape:connector-curvature="0" />
        <path
           sodipodi:type="arc"
           style="color:#000000;display:inline;overflow:visible;visibility:visible;fill:#ffffff;fill-opacity:1;stroke:#00000f;stroke-width:3;stroke-linecap:round;stroke-linejoin:miter;stroke-miterlimit:4;stroke-dasharray:none;stroke-dashoffset:0;stroke-opacity:0.94120029;marker:none;enable-background:accumulate"
           id="path4050-8-0-9-9-5-9-1-5-2-4-3-1"
           sodipodi:cx="57.75"
           sodipodi:cy="50.32"
           sodipodi:rx="20"
           sodipodi:ry="20"
           d="M 77.75,50.32 A 20,20 0 0 1 57.775927,70.319983 20,20 0 0 1 37.750067,50.371853 20,20 0 0 1 57.672221,30.320151 20,20 0 0 1 77.749731,50.216294"
           sodipodi:start="0"
           sodipodi:end="6.278"
           sodipodi:open="true"
           transform="matrix(0.8943,0,0,0.8943,1774,4182)" />
      </g>
      <text
         sodipodi:linespacing="125%"
         id="text18007-5"
         y="4232.6753"
         x="1821.9176"
         style="font-style:normal;font-variant:normal;font-weight:normal;font-stretch:normal;font-size:18px;line-height:125%;font-family:'Standard Symbols L';-inkscape-font-specification:'Standard Symbols L';text-align:start;letter-spacing:0px;word-spacing:0px;writing-mode:lr-tb;text-anchor:start;fill:#000000;fill-opacity:1;stroke:none"
         xml:space="preserve"><tspan
           y="4232.6753"
           x="1821.9176"
           id="tspan18009-1"
           sodipodi:role="line">2</tspan></text>
      <g
         id="measurement-group-k-3"
         inkscape:label="measurement">
        <path
           sodipodi:nodetypes="csc"
           style="fill:none;stroke:#000000;stroke-width:3;stroke-linecap:round;stroke-linejoin:miter;stroke-miterlimit:4;stroke-dasharray:none;stroke-opacity:1;marker-start:url(#marker7359);marker-end:url(#marker7359)"
           d="m 1940,4292 c 2,-12 7,-24 10,-38 6,-28 11,-56 4,-73"
           id="path7494-1-6-3-5-8-3-1-1-8-7-76-8-6"
           inkscape:connector-curvature="0" />
        <path
           sodipodi:type="arc"
           style="color:#000000;display:inline;overflow:visible;visibility:visible;fill:#ffffff;fill-opacity:1;stroke:#00000f;stroke-width:3;stroke-linecap:round;stroke-linejoin:miter;stroke-miterlimit:4;stroke-dasharray:none;stroke-dashoffset:0;stroke-opacity:0.94120029;marker:none;enable-background:accumulate"
           id="path4050-8-0-9-9-5-9-1-5-2-4-1-6"
           sodipodi:cx="57.75"
           sodipodi:cy="50.32"
           sodipodi:rx="20"
           sodipodi:ry="20"
           d="M 77.75,50.32 A 20,20 0 0 1 57.775927,70.319983 20,20 0 0 1 37.750067,50.371853 20,20 0 0 1 57.672221,30.320151 20,20 0 0 1 77.749731,50.216294"
           sodipodi:start="0"
           sodipodi:end="6.278"
           sodipodi:open="true"
           transform="matrix(0.8943,0,0,0.8943,1902,4182)" />
      </g>
      <text
         sodipodi:linespacing="125%"
         id="text18011-6"
         y="4232.5581"
         x="1949.7579"
         style="font-style:normal;font-variant:normal;font-weight:normal;font-stretch:normal;font-size:18px;line-height:125%;font-family:'Standard Symbols L';-inkscape-font-specification:'Standard Symbols L';text-align:start;letter-spacing:0px;word-spacing:0px;writing-mode:lr-tb;text-anchor:start;fill:#000000;fill-opacity:1;stroke:none"
         xml:space="preserve"><tspan
           y="4232.5581"
           x="1949.7579"
           id="tspan18013-4"
           sodipodi:role="line">3</tspan></text>
    </g>
  </g>
</svg>
