<?xml version="1.0" encoding="UTF-8" standalone="no"?>
<!-- Created with Inkscape (http://www.inkscape.org/) -->

<svg
   xmlns:dc="http://purl.org/dc/elements/1.1/"
   xmlns:cc="http://creativecommons.org/ns#"
   xmlns:rdf="http://www.w3.org/1999/02/22-rdf-syntax-ns#"
   xmlns:svg="http://www.w3.org/2000/svg"
   xmlns="http://www.w3.org/2000/svg"
   xmlns:sodipodi="http://sodipodi.sourceforge.net/DTD/sodipodi-0.dtd"
   xmlns:inkscape="http://www.inkscape.org/namespaces/inkscape"
   id="svg2"
   version="1.1"
   inkscape:version="0.91 r13725"
   width="294.3634"
   height="273.30609"
   sodipodi:docname="m.svg"
   inkscape:export-filename="/home/susan/Documents/Valentina/Measurements/measurement-body-diagram_20150730_50dpi.png"
   inkscape:export-xdpi="50"
   inkscape:export-ydpi="50">
  <metadata
     id="metadata8">
    <rdf:RDF>
      <cc:Work
         rdf:about="">
        <dc:format>image/svg+xml</dc:format>
        <dc:type
           rdf:resource="http://purl.org/dc/dcmitype/StillImage" />
        <dc:title />
      </cc:Work>
    </rdf:RDF>
  </metadata>
  <defs
     id="defs">
    <marker
       inkscape:stockid="Arrow2Mend"
       orient="auto"
       refY="0"
       refX="0"
       id="Arrow2Mend"
       style="overflow:visible">
      <path
         id="path8911"
         style="fill-rule:evenodd;stroke-width:0.625;stroke-linejoin:round"
         d="M 8.719,4.034 -2.207,0.016 8.719,-4.002 c -1.746,2.372 -1.736,5.618 0,8.036 z"
         transform="scale(-0.6,-0.6)"
         inkscape:connector-curvature="0" />
    </marker>
    <marker
       inkscape:stockid="Arrow1Lend"
       orient="auto"
       refY="0"
       refX="0"
       id="Arrow1Lend"
       style="overflow:visible">
      <path
         id="path8887"
         d="M 0,0 5,-5 -12.5,0 5,5 0,0 Z"
         style="fill-rule:evenodd;stroke:#000000;stroke-width:1pt"
         transform="matrix(-0.8,0,0,-0.8,-10,0)"
         inkscape:connector-curvature="0" />
    </marker>
    <marker
       inkscape:stockid="DotS"
       orient="auto"
       refY="0"
       refX="0"
       id="DotS"
       style="overflow:visible">
      <path
         id="path6414"
         d="m -2.5,-1 c 0,2.76 -2.24,5 -5,5 -2.76,0 -5,-2.24 -5,-5 0,-2.76 2.24,-5 5,-5 2.76,0 5,2.24 5,5 z"
         style="fill-rule:evenodd;stroke:#000000;stroke-width:1pt"
         transform="matrix(0.2,0,0,0.2,1.48,0.2)"
         inkscape:connector-curvature="0" />
    </marker>
    <marker
       inkscape:stockid="Arrow2Mend"
       orient="auto"
       refY="0"
       refX="0"
       id="Arrow2Mend-1"
       style="overflow:visible">
      <path
         id="path8911-8"
         style="fill-rule:evenodd;stroke-width:0.625;stroke-linejoin:round"
         d="M 8.719,4.034 -2.207,0.016 8.719,-4.002 c -1.746,2.372 -1.736,5.618 0,8.036 z"
         transform="scale(-0.6,-0.6)"
         inkscape:connector-curvature="0" />
    </marker>
    <marker
       inkscape:stockid="Arrow2Mend"
       orient="auto"
       refY="0"
       refX="0"
       id="marker8958"
       style="overflow:visible">
      <path
         id="path8960"
         style="fill-rule:evenodd;stroke-width:0.625;stroke-linejoin:round"
         d="M 8.719,4.034 -2.207,0.016 8.719,-4.002 c -1.746,2.372 -1.736,5.618 0,8.036 z"
         transform="scale(-0.6,-0.6)"
         inkscape:connector-curvature="0" />
    </marker>
    <marker
       inkscape:stockid="Arrow2Mend"
       orient="auto"
       refY="0"
       refX="0"
       id="marker8958-1"
       style="overflow:visible">
      <path
         id="path8960-5"
         style="fill-rule:evenodd;stroke-width:0.625;stroke-linejoin:round"
         d="M 8.719,4.034 -2.207,0.016 8.719,-4.002 c -1.746,2.372 -1.736,5.618 0,8.036 z"
         transform="scale(-0.6,-0.6)"
         inkscape:connector-curvature="0" />
    </marker>
    <marker
       inkscape:stockid="Arrow2Mend"
       orient="auto"
       refY="0"
       refX="0"
       id="marker8958-0"
       style="overflow:visible">
      <path
         id="path8960-7"
         style="fill-rule:evenodd;stroke-width:0.625;stroke-linejoin:round"
         d="M 8.719,4.034 -2.207,0.016 8.719,-4.002 c -1.746,2.372 -1.736,5.618 0,8.036 z"
         transform="scale(-0.6,-0.6)"
         inkscape:connector-curvature="0" />
    </marker>
    <marker
       inkscape:stockid="Arrow2Mend"
       orient="auto"
       refY="0"
       refX="0"
       id="marker14967"
       style="overflow:visible">
      <path
         id="path14969"
         style="fill-rule:evenodd;stroke-width:0.625;stroke-linejoin:round"
         d="M 8.719,4.034 -2.207,0.016 8.719,-4.002 c -1.746,2.372 -1.736,5.618 0,8.036 z"
         transform="scale(-0.6,-0.6)"
         inkscape:connector-curvature="0" />
    </marker>
    <marker
       inkscape:stockid="Arrow2Mend"
       orient="auto"
       refY="0"
       refX="0"
       id="Arrow2Mend-2"
       style="overflow:visible">
      <path
         id="path8911-1"
         style="fill-rule:evenodd;stroke-width:0.625;stroke-linejoin:round"
         d="M 8.719,4.034 -2.207,0.016 8.719,-4.002 c -1.746,2.372 -1.736,5.618 0,8.036 z"
         transform="scale(-0.6,-0.6)"
         inkscape:connector-curvature="0" />
    </marker>
    <marker
       inkscape:stockid="Arrow2Mend"
       orient="auto"
       refY="0"
       refX="0"
       id="marker11940"
       style="overflow:visible">
      <path
         id="path11942"
         style="fill-rule:evenodd;stroke-width:0.625;stroke-linejoin:round"
         d="M 8.719,4.034 -2.207,0.016 8.719,-4.002 c -1.746,2.372 -1.736,5.618 0,8.036 z"
         transform="scale(-0.6,-0.6)"
         inkscape:connector-curvature="0" />
    </marker>
    <marker
       inkscape:stockid="Arrow2Mend"
       orient="auto"
       refY="0"
       refX="0"
       id="Arrow2Mend-9"
       style="overflow:visible">
      <path
         id="path8911-4"
         style="fill-rule:evenodd;stroke-width:0.625;stroke-linejoin:round"
         d="M 8.719,4.034 -2.207,0.016 8.719,-4.002 c -1.746,2.372 -1.736,5.618 0,8.036 z"
         transform="scale(-0.6,-0.6)"
         inkscape:connector-curvature="0" />
    </marker>
    <marker
       inkscape:stockid="Arrow2Mend"
       orient="auto"
       refY="0"
       refX="0"
       id="marker5153"
       style="overflow:visible">
      <path
         id="path5155"
         style="fill-rule:evenodd;stroke-width:0.625;stroke-linejoin:round"
         d="M 8.719,4.034 -2.207,0.016 8.719,-4.002 c -1.746,2.372 -1.736,5.618 0,8.036 z"
         transform="scale(-0.6,-0.6)"
         inkscape:connector-curvature="0" />
    </marker>
    <marker
       inkscape:stockid="Arrow2Mend"
       orient="auto"
       refY="0"
       refX="0"
       id="Arrow2Mend-5"
       style="overflow:visible">
      <path
         id="path8911-5"
         style="fill-rule:evenodd;stroke-width:0.625;stroke-linejoin:round"
         d="M 8.719,4.034 -2.207,0.016 8.719,-4.002 c -1.746,2.372 -1.736,5.618 0,8.036 z"
         transform="scale(-0.6,-0.6)"
         inkscape:connector-curvature="0" />
    </marker>
    <marker
       inkscape:stockid="Arrow2Mend"
       orient="auto"
       refY="0"
       refX="0"
       id="marker18911"
       style="overflow:visible">
      <path
         id="path18913"
         style="fill-rule:evenodd;stroke-width:0.625;stroke-linejoin:round"
         d="M 8.719,4.034 -2.207,0.016 8.719,-4.002 c -1.746,2.372 -1.736,5.618 0,8.036 z"
         transform="scale(-0.6,-0.6)"
         inkscape:connector-curvature="0" />
    </marker>
    <marker
       inkscape:stockid="Arrow2Mend"
       orient="auto"
       refY="0"
       refX="0"
       id="marker18915"
       style="overflow:visible">
      <path
         id="path18917"
         style="fill-rule:evenodd;stroke-width:0.625;stroke-linejoin:round"
         d="M 8.719,4.034 -2.207,0.016 8.719,-4.002 c -1.746,2.372 -1.736,5.618 0,8.036 z"
         transform="scale(-0.6,-0.6)"
         inkscape:connector-curvature="0" />
    </marker>
    <marker
       inkscape:stockid="Arrow2Mend"
       orient="auto"
       refY="0"
       refX="0"
       id="marker18919"
       style="overflow:visible">
      <path
         id="path18921"
         style="fill-rule:evenodd;stroke-width:0.625;stroke-linejoin:round"
         d="M 8.719,4.034 -2.207,0.016 8.719,-4.002 c -1.746,2.372 -1.736,5.618 0,8.036 z"
         transform="scale(-0.6,-0.6)"
         inkscape:connector-curvature="0" />
    </marker>
    <marker
       inkscape:stockid="Arrow2Mend"
       orient="auto"
       refY="0"
       refX="0"
       id="marker18919-2"
       style="overflow:visible">
      <path
         id="path18921-9"
         style="fill-rule:evenodd;stroke-width:0.625;stroke-linejoin:round"
         d="M 8.719,4.034 -2.207,0.016 8.719,-4.002 c -1.746,2.372 -1.736,5.618 0,8.036 z"
         transform="scale(-0.6,-0.6)"
         inkscape:connector-curvature="0" />
    </marker>
    <marker
       inkscape:stockid="Arrow2Mend"
       orient="auto"
       refY="0"
       refX="0"
       id="marker18919-9"
       style="overflow:visible">
      <path
         id="path18921-1"
         style="fill-rule:evenodd;stroke-width:0.625;stroke-linejoin:round"
         d="M 8.719,4.034 -2.207,0.016 8.719,-4.002 c -1.746,2.372 -1.736,5.618 0,8.036 z"
         transform="scale(-0.6,-0.6)"
         inkscape:connector-curvature="0" />
    </marker>
  </defs>
  <sodipodi:namedview
     pagecolor="#ffffff"
     bordercolor="#666666"
     borderopacity="1"
     objecttolerance="10"
     gridtolerance="10"
     guidetolerance="10"
     inkscape:pageopacity="0"
     inkscape:pageshadow="2"
     inkscape:window-width="1440"
     inkscape:window-height="808"
     id="ValentinaMeasurements"
     showgrid="false"
     inkscape:zoom="1.0642"
     inkscape:cx="-112.0407"
     inkscape:cy="-17.050986"
     inkscape:window-x="0"
     inkscape:window-y="0"
     inkscape:window-maximized="1"
     inkscape:current-layer="layer2"
     fit-margin-left="0"
     fit-margin-top="0"
     fit-margin-right="0"
     fit-margin-bottom="0"
     units="in"
     showguides="true"
     inkscape:guide-bbox="true" />
  <g
     inkscape:groupmode="layer"
     id="layer1"
     inkscape:label="Base"
     style="display:inline"
     transform="translate(-724.74662,-5727.7848)"
     sodipodi:insensitive="true">
    <rect
       style="fill:#ffffff;fill-opacity:1"
       id="rect5160"
       width="2250"
       height="6390"
       x="-84.860001"
       y="1455" />
  </g>
  <g
     inkscape:groupmode="layer"
     id="layer2"
     inkscape:label="Graphics"
     style="display:inline"
     transform="translate(-724.74662,-5727.7848)">
    <g
       id="g15062"
       transform="matrix(0.8062,0,0,0.8062,-99.97,1774)">
      <g
         transform="matrix(2.026,0,0,2.026,-1070,1197)"
         id="g8933-8-4"
         style="stroke-width:2.6487;stroke-linecap:round;stroke-miterlimit:4;stroke-dasharray:none">
        <g
           id="g6061-6-1"
           transform="translate(391.1,6.69)"
           style="stroke-width:2.6487;stroke-linecap:round;stroke-miterlimit:4;stroke-dasharray:none">
          <g
             transform="translate(-39.8,3.732)"
             id="g15057-3-8"
             style="stroke-width:2.6487;stroke-linecap:round;stroke-miterlimit:4;stroke-dasharray:none">
            <g
               id="g14909-7-0"
               transform="matrix(-1,0,0,1,1759,0)"
               style="stroke-width:2.6487;stroke-linecap:round;stroke-miterlimit:4;stroke-dasharray:none">
              <g
                 transform="translate(46.59,-957.2)"
                 id="g14210-5-7"
                 style="stroke-width:2.6487;stroke-linecap:round;stroke-miterlimit:4;stroke-dasharray:none">
                <g
                   id="g13309-0-8"
                   transform="translate(-389.2,-50.76)"
                   style="stroke-width:2.6487;stroke-linecap:round;stroke-miterlimit:4;stroke-dasharray:none">
                  <g
                     transform="translate(418.7,2031)"
                     id="g11297-4-9-1"
                     style="stroke-width:2.6487;stroke-linecap:round;stroke-miterlimit:4;stroke-dasharray:none">
                    <g
                       transform="translate(675.6,418.4)"
                       id="g3086-1-0-3"
                       style="stroke-width:2.6487;stroke-linecap:round;stroke-miterlimit:4;stroke-dasharray:none">
                      <g
                         transform="translate(-262.9,-402.3)"
                         id="g5465-5-0-9-1"
                         style="stroke-width:2.6487;stroke-linecap:round;stroke-miterlimit:4;stroke-dasharray:none">
                        <g
                           id="body_front_three_quarters_original-0-4-2-7"
                           transform="translate(-119.2,-3.744)"
                           style="stroke-width:2.6487;stroke-linecap:round;stroke-miterlimit:4;stroke-dasharray:none">
                          <g
                             id="g7397-2-5-9-4"
                             style="stroke-width:2.6487;stroke-linecap:round;stroke-miterlimit:4;stroke-dasharray:none" />
                          <g
                             transform="translate(457.6,212.9)"
                             id="g4056-9-9-6-9-3-8"
                             style="stroke-width:2.6487;stroke-linecap:round;stroke-miterlimit:4;stroke-dasharray:none" />
                          <g
                             transform="translate(456.7,253.4)"
                             id="g4056-3-5-1-4-3-0"
                             style="stroke-width:2.6487;stroke-linecap:round;stroke-miterlimit:4;stroke-dasharray:none" />
                          <g
                             transform="translate(458.6,288.7)"
                             id="g4056-0-0-3-4-5-3"
                             style="stroke-width:2.6487;stroke-linecap:round;stroke-miterlimit:4;stroke-dasharray:none" />
                          <g
                             transform="translate(458,326.1)"
                             id="g4056-6-1-39-0-3-1"
                             style="stroke-width:2.6487;stroke-linecap:round;stroke-miterlimit:4;stroke-dasharray:none" />
                          <g
                             transform="translate(459.1,375)"
                             id="g4056-99-1-24-5-4-4"
                             style="stroke-width:2.6487;stroke-linecap:round;stroke-miterlimit:4;stroke-dasharray:none" />
                          <g
                             transform="translate(463.8,444.3)"
                             id="g4056-2-0-4-0-5-4"
                             style="stroke-width:2.6487;stroke-linecap:round;stroke-miterlimit:4;stroke-dasharray:none" />
                        </g>
                      </g>
                    </g>
                  </g>
                  <g
                     id="g13296-6-5"
                     style="stroke-width:2.6487;stroke-linecap:round;stroke-miterlimit:4;stroke-dasharray:none">
                    <path
                       style="fill:none;stroke:#dba981;stroke-width:1.83659995;stroke-linecap:round;stroke-linejoin:round;stroke-miterlimit:4;stroke-dasharray:none;stroke-opacity:1"
                       d="m 1254,2925 c 7,0 1,-3 17,-3 9,-1 24,-12 31,-14 5,-2 13,2 18,1 4,-1 8,-2 10,-5 3,-4 0,-9 0,-14 0,-6 -2,-9 -2,-15 1,-14 3,-29 7,-43 -11,3 -30,5 -39,1 1,9 2,17 3,26 0,5 1,7 0,10 -1,3 -6,7 -11,9 -3,2 -12,11 -25,22 -8,7 -8,10 -15,12 -5,1 -6,2 -7,5 -1,1 0,4 0,4 2,4 10,4 13,4 z"
                       id="path11890"
                       inkscape:connector-curvature="0"
                       sodipodi:nodetypes="scsccccsccccccacs" />
                    <g
                       id="g13266-3-4"
                       transform="translate(411.7,5.708)"
                       style="stroke-width:2.6487;stroke-linecap:round;stroke-miterlimit:4;stroke-dasharray:none" />
                  </g>
                  <g
                     transform="translate(183.4,-89.18)"
                     id="g13289-4-4"
                     style="stroke-width:2.6487;stroke-linecap:round;stroke-miterlimit:4;stroke-dasharray:none">
                    <g
                       id="g13276-8-2"
                       transform="translate(-185.5,72.06)"
                       style="stroke-width:2.6487;stroke-linecap:round;stroke-miterlimit:4;stroke-dasharray:none" />
                  </g>
                </g>
              </g>
            </g>
          </g>
        </g>
      </g>
      <path
         sodipodi:nodetypes="cc"
         inkscape:connector-curvature="0"
         id="path8471-6-6-72-2-3-9-50"
         d="m 1263,5069 c 15,-5 38,-58 28,-64"
         style="opacity:0.3;fill:none;stroke:#000000;stroke-width:3;stroke-linecap:butt;stroke-linejoin:miter;stroke-miterlimit:4;stroke-dasharray:9, 3;stroke-dashoffset:0;stroke-opacity:1" />
      <path
         sodipodi:nodetypes="cc"
         inkscape:connector-curvature="0"
         id="path8471-6-6-72-2-3-9-50-4"
         d="m 1320,5096 c 20,-3 31,-46 21,-48"
         style="opacity:0.3;fill:none;stroke:#000000;stroke-width:3;stroke-linecap:butt;stroke-linejoin:miter;stroke-miterlimit:4;stroke-dasharray:9, 3;stroke-dashoffset:0;stroke-opacity:1" />
      <path
         sodipodi:nodetypes="cc"
         inkscape:connector-curvature="0"
         id="path8471-6-6-72-2-3-9-50-0"
         d="m 1197,5086 5,-41"
         style="fill:none;stroke:#dba981;stroke-width:3;stroke-linecap:butt;stroke-linejoin:miter;stroke-miterlimit:4;stroke-dasharray:9, 3;stroke-dashoffset:0;stroke-opacity:1" />
      <path
         sodipodi:nodetypes="cc"
         inkscape:connector-curvature="0"
         id="path8471-6-6-72-2-3-9-50-0-5"
         d="m 1381,5132 5,-41"
         style="fill:none;stroke:#dba981;stroke-width:3;stroke-linecap:butt;stroke-linejoin:miter;stroke-miterlimit:4;stroke-dasharray:9, 3;stroke-dashoffset:0;stroke-opacity:1" />
      <g
         id="measurement-group-m-4"
         inkscape:label="measurement">
        <path
           style="fill:none;stroke:#000000;stroke-width:2.13249993;stroke-linecap:round;stroke-linejoin:miter;stroke-miterlimit:4;stroke-dasharray:none;stroke-dashoffset:0;stroke-opacity:1"
           d="m 1262,5069 c -12,4 14,-70 29,-64"
           id="path8471-6-6-72-2-3-9-50-1"
           inkscape:connector-curvature="0"
           sodipodi:nodetypes="cc" />
        <path
           sodipodi:type="arc"
           style="color:#000000;display:inline;overflow:visible;visibility:visible;fill:#ffffff;fill-opacity:1;stroke:#00000f;stroke-width:3.35459995;stroke-linecap:round;stroke-linejoin:miter;stroke-miterlimit:4;stroke-dasharray:none;stroke-dashoffset:0;stroke-opacity:0.94120029;marker:none;enable-background:accumulate"
           id="path4050-8-0-9-9-5-9-1-5-2-4-8-7-6-9"
           sodipodi:cx="57.75"
           sodipodi:cy="50.32"
           sodipodi:rx="20"
           sodipodi:ry="20"
           d="M 77.75,50.32 A 20,20 0 0 1 57.775927,70.319983 20,20 0 0 1 37.750067,50.371853 20,20 0 0 1 57.672221,30.320151 20,20 0 0 1 77.749731,50.216294"
           sodipodi:start="0"
           sodipodi:end="6.278"
           sodipodi:open="true"
           transform="matrix(0.8943,0,0,0.8943,1209,4986)" />
      </g>
      <text
         sodipodi:linespacing="125%"
         id="text17813-1-5"
         y="5037.0596"
         x="1255.885"
         style="font-style:normal;font-variant:normal;font-weight:normal;font-stretch:normal;font-size:18px;line-height:125%;font-family:'Standard Symbols L';-inkscape-font-specification:'Standard Symbols L';text-align:start;letter-spacing:0px;word-spacing:0px;writing-mode:lr-tb;text-anchor:start;fill:#000000;fill-opacity:1;stroke:none"
         xml:space="preserve"><tspan
           y="5037.0596"
           x="1255.885"
           id="tspan17815-9-9"
           sodipodi:role="line">4</tspan></text>
      <g
         id="measurement-group-m-3"
         inkscape:label="measurement">
        <path
           style="fill:none;stroke:#000000;stroke-width:3;stroke-linecap:round;stroke-linejoin:miter;stroke-miterlimit:4;stroke-dasharray:none;stroke-dashoffset:0;stroke-opacity:1"
           d="m 1318,5096 c -12,4 8,-54 23,-48"
           id="path8471-6-6-72-2-3-9-50-1-4"
           inkscape:connector-curvature="0"
           sodipodi:nodetypes="cc" />
        <path
           sodipodi:type="arc"
           style="color:#000000;display:inline;overflow:visible;visibility:visible;fill:#ffffff;fill-opacity:1;stroke:#00000f;stroke-width:3;stroke-linecap:round;stroke-linejoin:miter;stroke-miterlimit:4;stroke-dasharray:none;stroke-dashoffset:0;stroke-opacity:0.94120029;marker:none;enable-background:accumulate"
           id="path4050-8-0-9-9-5-9-1-5-2-4-8-7-6-95"
           sodipodi:cx="57.75"
           sodipodi:cy="50.32"
           sodipodi:rx="20"
           sodipodi:ry="20"
           d="M 77.75,50.32 A 20,20 0 0 1 57.775927,70.319983 20,20 0 0 1 37.750067,50.371853 20,20 0 0 1 57.672221,30.320151 20,20 0 0 1 77.749731,50.216294"
           sodipodi:start="0"
           sodipodi:end="6.278"
           sodipodi:open="true"
           transform="matrix(0.8943,0,0,0.8943,1264,5020)" />
      </g>
      <text
         sodipodi:linespacing="125%"
         id="text17813-1-1"
         y="5071.2227"
         x="1311.1143"
         style="font-style:normal;font-variant:normal;font-weight:normal;font-stretch:normal;font-size:18px;line-height:125%;font-family:'Standard Symbols L';-inkscape-font-specification:'Standard Symbols L';text-align:start;letter-spacing:0px;word-spacing:0px;writing-mode:lr-tb;text-anchor:start;fill:#000000;fill-opacity:1;stroke:none"
         xml:space="preserve"><tspan
           y="5071.2227"
           x="1311.1143"
           id="tspan17815-9-6"
           sodipodi:role="line">3</tspan></text>
      <g
         id="measurement-group-m-2"
         inkscape:label="measurement">
        <path
           style="fill:none;stroke:#000000;stroke-width:3;stroke-linecap:round;stroke-linejoin:miter;stroke-miterlimit:4;stroke-dasharray:none;stroke-dashoffset:0;stroke-opacity:1"
           d="m 1382,5131 -185,-45"
           id="path8471-6-6-72-2-3-9-50-1-3"
           inkscape:connector-curvature="0"
           sodipodi:nodetypes="cc" />
        <path
           sodipodi:type="arc"
           style="color:#000000;display:inline;overflow:visible;visibility:visible;fill:#ffffff;fill-opacity:1;stroke:#00000f;stroke-width:3;stroke-linecap:round;stroke-linejoin:miter;stroke-miterlimit:4;stroke-dasharray:none;stroke-dashoffset:0;stroke-opacity:0.94120029;marker:none;enable-background:accumulate"
           id="path4050-8-0-9-9-5-9-1-5-2-4-8-7-6-3"
           sodipodi:cx="57.75"
           sodipodi:cy="50.32"
           sodipodi:rx="20"
           sodipodi:ry="20"
           d="M 77.75,50.32 A 20,20 0 0 1 57.775927,70.319983 20,20 0 0 1 37.750067,50.371853 20,20 0 0 1 57.672221,30.320151 20,20 0 0 1 77.749731,50.216294"
           sodipodi:start="0"
           sodipodi:end="6.278"
           sodipodi:open="true"
           transform="matrix(0.8943,0,0,0.8943,1225,5065)" />
      </g>
      <text
         sodipodi:linespacing="125%"
         id="text17813-1-53"
         y="5116.1753"
         x="1272.1459"
         style="font-style:normal;font-variant:normal;font-weight:normal;font-stretch:normal;font-size:18px;line-height:125%;font-family:'Standard Symbols L';-inkscape-font-specification:'Standard Symbols L';text-align:start;letter-spacing:0px;word-spacing:0px;writing-mode:lr-tb;text-anchor:start;fill:#000000;fill-opacity:1;stroke:none"
         xml:space="preserve"><tspan
           y="5116.1753"
           x="1272.1459"
           id="tspan17815-9-2"
           sodipodi:role="line">2</tspan></text>
    </g>
    <g
       id="g17157"
       transform="matrix(0.8062,0,0,0.8062,-99.97,1774)">
      <g
         id="g14944"
         style="display:inline"
         transform="translate(990.4,4328)">
        <path
           style="fill:none;stroke:#dba981;stroke-width:3;stroke-linecap:butt;stroke-linejoin:miter;stroke-miterlimit:4;stroke-dasharray:9, 3;stroke-dashoffset:0;stroke-opacity:1"
           d="M 97.85,323.7 98.3,445.6"
           id="path14922"
           inkscape:connector-curvature="0"
           transform="translate(-52.1,451.5)"
           sodipodi:nodetypes="cc" />
        <path
           style="display:inline;fill:none;stroke:#dba981;stroke-width:3;stroke-linecap:butt;stroke-linejoin:miter;stroke-miterlimit:4;stroke-dasharray:9, 3;stroke-dashoffset:0;stroke-opacity:1"
           d="m 139.6,773.8 0,123.1"
           id="path14922-7"
           inkscape:connector-curvature="0"
           sodipodi:nodetypes="cc" />
        <path
           inkscape:connector-curvature="0"
           id="path12656"
           style="fill:none;stroke:#dba981;stroke-width:3.72099996;stroke-linecap:round;stroke-linejoin:miter;stroke-miterlimit:4;stroke-dasharray:none;stroke-dashoffset:0;stroke-opacity:1"
           d="m 35,579.2 c 2,11 14,55 14,55 0,0 -3,18 3,42 1,45 -8,96 -1,127 -2,10 2,23 10,18 1,10 6,17 14,12 3,10 7,13 14,11 5,11 19,13 21,-2 7,7 15,13 23,2 7,-11 1,-34 1,-38 10,-49 -12,-85 -19,-121 7,-21 6,-21 -2,-42 -5,-28 -2,-45 -2,-45 0,-8 1,-13 1,-19 -26,11 -52,10 -77,0 z"
           sodipodi:nodetypes="ccccccccccccccc" />
      </g>
      <g
         id="measurement-group-m-1"
         inkscape:label="measurement">
        <path
           sodipodi:nodetypes="cc"
           inkscape:connector-curvature="0"
           id="path8471-6-6-72-2-3-9-5-3-8"
           d="m 140,897.2 -94,0"
           style="display:inline;fill:none;stroke:#000000;stroke-width:3;stroke-linecap:round;stroke-linejoin:miter;stroke-miterlimit:4;stroke-dasharray:none;stroke-dashoffset:0;stroke-opacity:1"
           transform="translate(990.4,4328)" />
        <path
           sodipodi:type="arc"
           style="color:#000000;display:inline;overflow:visible;visibility:visible;fill:#ffffff;fill-opacity:1;stroke:#00000f;stroke-width:3;stroke-linecap:round;stroke-linejoin:miter;stroke-miterlimit:4;stroke-dasharray:none;stroke-dashoffset:0;stroke-opacity:0.94120029;marker:none;enable-background:accumulate"
           id="path4050-8-0-9-9-5-9-1-5-2-4-8-7-6"
           sodipodi:cx="57.75"
           sodipodi:cy="50.32"
           sodipodi:rx="20"
           sodipodi:ry="20"
           d="M 77.75,50.32 A 20,20 0 0 1 57.775927,70.319983 20,20 0 0 1 37.750067,50.371853 20,20 0 0 1 57.672221,30.320151 20,20 0 0 1 77.749731,50.216294"
           sodipodi:start="0"
           sodipodi:end="6.278"
           sodipodi:open="true"
           transform="matrix(0.8943,0,0,0.8943,1029,5179)" />
      </g>
      <text
         sodipodi:linespacing="125%"
         id="text17813-1"
         y="5230.0581"
         x="1076.0829"
         style="font-style:normal;font-variant:normal;font-weight:normal;font-stretch:normal;font-size:18px;line-height:125%;font-family:'Standard Symbols L';-inkscape-font-specification:'Standard Symbols L';text-align:start;letter-spacing:0px;word-spacing:0px;writing-mode:lr-tb;text-anchor:start;fill:#000000;fill-opacity:1;stroke:none"
         xml:space="preserve"><tspan
           y="5230.0581"
           x="1076.0829"
           id="tspan17815-9"
           sodipodi:role="line">1</tspan></text>
    </g>
  </g>
</svg>
