<?xml version="1.0" encoding="UTF-8" standalone="no"?>
<!-- Created with Inkscape (http://www.inkscape.org/) -->

<svg
   xmlns:dc="http://purl.org/dc/elements/1.1/"
   xmlns:cc="http://creativecommons.org/ns#"
   xmlns:rdf="http://www.w3.org/1999/02/22-rdf-syntax-ns#"
   xmlns:svg="http://www.w3.org/2000/svg"
   xmlns="http://www.w3.org/2000/svg"
   xmlns:sodipodi="http://sodipodi.sourceforge.net/DTD/sodipodi-0.dtd"
   xmlns:inkscape="http://www.inkscape.org/namespaces/inkscape"
   id="svg2"
   version="1.1"
   inkscape:version="0.91 r13725"
   width="720.30347"
   height="299.1908"
   sodipodi:docname="n.svg"
   inkscape:export-filename="/home/susan/Documents/Valentina/Measurements/measurement-body-diagram_20150730_50dpi.png"
   inkscape:export-xdpi="50"
   inkscape:export-ydpi="50">
  <metadata
     id="metadata8">
    <rdf:RDF>
      <cc:Work
         rdf:about="">
        <dc:format>image/svg+xml</dc:format>
        <dc:type
           rdf:resource="http://purl.org/dc/dcmitype/StillImage" />
        <dc:title />
      </cc:Work>
    </rdf:RDF>
  </metadata>
  <defs
     id="defs">
    <marker
       inkscape:stockid="Arrow2Mend"
       orient="auto"
       refY="0"
       refX="0"
       id="Arrow2Mend"
       style="overflow:visible">
      <path
         id="path8911"
         style="fill-rule:evenodd;stroke-width:0.625;stroke-linejoin:round"
         d="M 8.719,4.034 -2.207,0.016 8.719,-4.002 c -1.746,2.372 -1.736,5.618 0,8.036 z"
         transform="scale(-0.6,-0.6)"
         inkscape:connector-curvature="0" />
    </marker>
    <marker
       inkscape:stockid="Arrow1Lend"
       orient="auto"
       refY="0"
       refX="0"
       id="Arrow1Lend"
       style="overflow:visible">
      <path
         id="path8887"
         d="M 0,0 5,-5 -12.5,0 5,5 0,0 Z"
         style="fill-rule:evenodd;stroke:#000000;stroke-width:1pt"
         transform="matrix(-0.8,0,0,-0.8,-10,0)"
         inkscape:connector-curvature="0" />
    </marker>
    <marker
       inkscape:stockid="DotS"
       orient="auto"
       refY="0"
       refX="0"
       id="DotS"
       style="overflow:visible">
      <path
         id="path6414"
         d="m -2.5,-1 c 0,2.76 -2.24,5 -5,5 -2.76,0 -5,-2.24 -5,-5 0,-2.76 2.24,-5 5,-5 2.76,0 5,2.24 5,5 z"
         style="fill-rule:evenodd;stroke:#000000;stroke-width:1pt"
         transform="matrix(0.2,0,0,0.2,1.48,0.2)"
         inkscape:connector-curvature="0" />
    </marker>
    <marker
       inkscape:stockid="Arrow2Mend"
       orient="auto"
       refY="0"
       refX="0"
       id="Arrow2Mend-1"
       style="overflow:visible">
      <path
         id="path8911-8"
         style="fill-rule:evenodd;stroke-width:0.625;stroke-linejoin:round"
         d="M 8.719,4.034 -2.207,0.016 8.719,-4.002 c -1.746,2.372 -1.736,5.618 0,8.036 z"
         transform="scale(-0.6,-0.6)"
         inkscape:connector-curvature="0" />
    </marker>
    <marker
       inkscape:stockid="Arrow2Mend"
       orient="auto"
       refY="0"
       refX="0"
       id="marker8958"
       style="overflow:visible">
      <path
         id="path8960"
         style="fill-rule:evenodd;stroke-width:0.625;stroke-linejoin:round"
         d="M 8.719,4.034 -2.207,0.016 8.719,-4.002 c -1.746,2.372 -1.736,5.618 0,8.036 z"
         transform="scale(-0.6,-0.6)"
         inkscape:connector-curvature="0" />
    </marker>
    <marker
       inkscape:stockid="Arrow2Mend"
       orient="auto"
       refY="0"
       refX="0"
       id="marker8958-1"
       style="overflow:visible">
      <path
         id="path8960-5"
         style="fill-rule:evenodd;stroke-width:0.625;stroke-linejoin:round"
         d="M 8.719,4.034 -2.207,0.016 8.719,-4.002 c -1.746,2.372 -1.736,5.618 0,8.036 z"
         transform="scale(-0.6,-0.6)"
         inkscape:connector-curvature="0" />
    </marker>
    <marker
       inkscape:stockid="Arrow2Mend"
       orient="auto"
       refY="0"
       refX="0"
       id="marker8958-0"
       style="overflow:visible">
      <path
         id="path8960-7"
         style="fill-rule:evenodd;stroke-width:0.625;stroke-linejoin:round"
         d="M 8.719,4.034 -2.207,0.016 8.719,-4.002 c -1.746,2.372 -1.736,5.618 0,8.036 z"
         transform="scale(-0.6,-0.6)"
         inkscape:connector-curvature="0" />
    </marker>
    <marker
       inkscape:stockid="Arrow2Mend"
       orient="auto"
       refY="0"
       refX="0"
       id="marker14967"
       style="overflow:visible">
      <path
         id="path14969"
         style="fill-rule:evenodd;stroke-width:0.625;stroke-linejoin:round"
         d="M 8.719,4.034 -2.207,0.016 8.719,-4.002 c -1.746,2.372 -1.736,5.618 0,8.036 z"
         transform="scale(-0.6,-0.6)"
         inkscape:connector-curvature="0" />
    </marker>
    <marker
       inkscape:stockid="Arrow2Mend"
       orient="auto"
       refY="0"
       refX="0"
       id="Arrow2Mend-2"
       style="overflow:visible">
      <path
         id="path8911-1"
         style="fill-rule:evenodd;stroke-width:0.625;stroke-linejoin:round"
         d="M 8.719,4.034 -2.207,0.016 8.719,-4.002 c -1.746,2.372 -1.736,5.618 0,8.036 z"
         transform="scale(-0.6,-0.6)"
         inkscape:connector-curvature="0" />
    </marker>
    <marker
       inkscape:stockid="Arrow2Mend"
       orient="auto"
       refY="0"
       refX="0"
       id="marker11940"
       style="overflow:visible">
      <path
         id="path11942"
         style="fill-rule:evenodd;stroke-width:0.625;stroke-linejoin:round"
         d="M 8.719,4.034 -2.207,0.016 8.719,-4.002 c -1.746,2.372 -1.736,5.618 0,8.036 z"
         transform="scale(-0.6,-0.6)"
         inkscape:connector-curvature="0" />
    </marker>
    <marker
       inkscape:stockid="Arrow2Mend"
       orient="auto"
       refY="0"
       refX="0"
       id="Arrow2Mend-9"
       style="overflow:visible">
      <path
         id="path8911-4"
         style="fill-rule:evenodd;stroke-width:0.625;stroke-linejoin:round"
         d="M 8.719,4.034 -2.207,0.016 8.719,-4.002 c -1.746,2.372 -1.736,5.618 0,8.036 z"
         transform="scale(-0.6,-0.6)"
         inkscape:connector-curvature="0" />
    </marker>
    <marker
       inkscape:stockid="Arrow2Mend"
       orient="auto"
       refY="0"
       refX="0"
       id="marker5153"
       style="overflow:visible">
      <path
         id="path5155"
         style="fill-rule:evenodd;stroke-width:0.625;stroke-linejoin:round"
         d="M 8.719,4.034 -2.207,0.016 8.719,-4.002 c -1.746,2.372 -1.736,5.618 0,8.036 z"
         transform="scale(-0.6,-0.6)"
         inkscape:connector-curvature="0" />
    </marker>
    <marker
       inkscape:stockid="Arrow2Mend"
       orient="auto"
       refY="0"
       refX="0"
       id="Arrow2Mend-5"
       style="overflow:visible">
      <path
         id="path8911-5"
         style="fill-rule:evenodd;stroke-width:0.625;stroke-linejoin:round"
         d="M 8.719,4.034 -2.207,0.016 8.719,-4.002 c -1.746,2.372 -1.736,5.618 0,8.036 z"
         transform="scale(-0.6,-0.6)"
         inkscape:connector-curvature="0" />
    </marker>
    <marker
       inkscape:stockid="Arrow2Mend"
       orient="auto"
       refY="0"
       refX="0"
       id="marker18911"
       style="overflow:visible">
      <path
         id="path18913"
         style="fill-rule:evenodd;stroke-width:0.625;stroke-linejoin:round"
         d="M 8.719,4.034 -2.207,0.016 8.719,-4.002 c -1.746,2.372 -1.736,5.618 0,8.036 z"
         transform="scale(-0.6,-0.6)"
         inkscape:connector-curvature="0" />
    </marker>
    <marker
       inkscape:stockid="Arrow2Mend"
       orient="auto"
       refY="0"
       refX="0"
       id="marker18915"
       style="overflow:visible">
      <path
         id="path18917"
         style="fill-rule:evenodd;stroke-width:0.625;stroke-linejoin:round"
         d="M 8.719,4.034 -2.207,0.016 8.719,-4.002 c -1.746,2.372 -1.736,5.618 0,8.036 z"
         transform="scale(-0.6,-0.6)"
         inkscape:connector-curvature="0" />
    </marker>
    <marker
       inkscape:stockid="Arrow2Mend"
       orient="auto"
       refY="0"
       refX="0"
       id="marker18919"
       style="overflow:visible">
      <path
         id="path18921"
         style="fill-rule:evenodd;stroke-width:0.625;stroke-linejoin:round"
         d="M 8.719,4.034 -2.207,0.016 8.719,-4.002 c -1.746,2.372 -1.736,5.618 0,8.036 z"
         transform="scale(-0.6,-0.6)"
         inkscape:connector-curvature="0" />
    </marker>
    <marker
       inkscape:stockid="Arrow2Mend"
       orient="auto"
       refY="0"
       refX="0"
       id="marker18919-2"
       style="overflow:visible">
      <path
         id="path18921-9"
         style="fill-rule:evenodd;stroke-width:0.625;stroke-linejoin:round"
         d="M 8.719,4.034 -2.207,0.016 8.719,-4.002 c -1.746,2.372 -1.736,5.618 0,8.036 z"
         transform="scale(-0.6,-0.6)"
         inkscape:connector-curvature="0" />
    </marker>
    <marker
       inkscape:stockid="Arrow2Mend"
       orient="auto"
       refY="0"
       refX="0"
       id="marker18919-9"
       style="overflow:visible">
      <path
         id="path18921-1"
         style="fill-rule:evenodd;stroke-width:0.625;stroke-linejoin:round"
         d="M 8.719,4.034 -2.207,0.016 8.719,-4.002 c -1.746,2.372 -1.736,5.618 0,8.036 z"
         transform="scale(-0.6,-0.6)"
         inkscape:connector-curvature="0" />
    </marker>
  </defs>
  <sodipodi:namedview
     pagecolor="#ffffff"
     bordercolor="#666666"
     borderopacity="1"
     objecttolerance="10"
     gridtolerance="10"
     guidetolerance="10"
     inkscape:pageopacity="0"
     inkscape:pageshadow="2"
     inkscape:window-width="1440"
     inkscape:window-height="808"
     id="ValentinaMeasurements"
     showgrid="false"
     inkscape:zoom="0.75250304"
     inkscape:cx="165.55601"
     inkscape:cy="190.45958"
     inkscape:window-x="0"
     inkscape:window-y="0"
     inkscape:window-maximized="1"
     inkscape:current-layer="layer2"
     fit-margin-left="0"
     fit-margin-top="0"
     fit-margin-right="0"
     fit-margin-bottom="0"
     units="in"
     showguides="true"
     inkscape:guide-bbox="true" />
  <g
     inkscape:groupmode="layer"
     id="layer1"
     inkscape:label="Base"
     style="display:inline"
     transform="translate(-1159.9945,-5718.686)"
     sodipodi:insensitive="true">
    <rect
       style="fill:#ffffff;fill-opacity:1"
       id="rect5160"
       width="2250"
       height="6390"
       x="-84.860001"
       y="1455" />
  </g>
  <g
     inkscape:groupmode="layer"
     id="layer2"
     inkscape:label="Graphics"
     style="display:inline"
     transform="translate(-1159.9945,-5718.686)">
    <g
       id="g8658"
       transform="matrix(0.8062,0,0,0.8062,-144.8,1761)">
      <path
         style="fill:none;stroke:#dba981;stroke-width:2;stroke-linecap:round;stroke-linejoin:miter;stroke-miterlimit:4;stroke-dasharray:6, 2;stroke-dashoffset:0;stroke-opacity:1"
         d="m 2246,5277 -173,1 -151,-1"
         id="path9285"
         inkscape:connector-curvature="0" />
      <path
         style="fill:none;stroke:#dba981;stroke-width:3;stroke-linecap:butt;stroke-linejoin:miter;stroke-miterlimit:4;stroke-dasharray:9, 3;stroke-dashoffset:0;stroke-opacity:1"
         d="m 1980,5058 1,-127"
         id="path3833-4-0-8-2-6-6-9-5-7"
         inkscape:connector-curvature="0"
         sodipodi:nodetypes="cc" />
      <path
         style="fill:none;stroke:#dba981;stroke-width:3;stroke-linecap:butt;stroke-linejoin:miter;stroke-miterlimit:4;stroke-dasharray:9, 3;stroke-dashoffset:0;stroke-opacity:1"
         d="m 2164,5038 0,-108"
         id="path3833-4-0-8-2-6-6-9-5-2-6"
         inkscape:connector-curvature="0"
         sodipodi:nodetypes="cc" />
      <g
         id="measurement-group-n-4"
         inkscape:label="measurement">
        <path
           sodipodi:nodetypes="cc"
           inkscape:connector-curvature="0"
           id="path7494-1-6-3-5-7-8-5-0-3-8-9-2-1"
           d="m 2166,4932 -186,0"
           style="fill:none;stroke:#000000;stroke-width:2.68289995;stroke-linecap:round;stroke-linejoin:miter;stroke-miterlimit:4;stroke-dasharray:none;stroke-opacity:1;marker-start:url(#marker7359);marker-end:url(#marker7359)" />
        <path
           transform="matrix(-0.8943,0,0,0.8943,2124,4886)"
           sodipodi:open="true"
           sodipodi:end="6.278"
           sodipodi:start="0"
           d="M 77.75,50.32 A 20,20 0 0 1 57.775927,70.319983 20,20 0 0 1 37.750067,50.371853 20,20 0 0 1 57.672221,30.320151 20,20 0 0 1 77.749731,50.216294"
           sodipodi:ry="20"
           sodipodi:rx="20"
           sodipodi:cy="50.32"
           sodipodi:cx="57.75"
           id="path4050-8-0-9-9-5-9-7-8-8-0-93-21"
           style="color:#000000;display:inline;overflow:visible;visibility:visible;fill:#ffffff;fill-opacity:1;stroke:#00000f;stroke-width:3;stroke-linecap:round;stroke-linejoin:miter;stroke-miterlimit:4;stroke-dasharray:none;stroke-dashoffset:0;stroke-opacity:0.94120017;marker:none;enable-background:accumulate"
           sodipodi:type="arc" />
      </g>
      <path
         sodipodi:nodetypes="cccscsccc"
         inkscape:connector-curvature="0"
         id="path13119-0"
         d="m 1923,5278 c 9,-21 73,-20 96,-53 11,-19 12,-47 12,-64 -1,-10 -47,-35 -49,-104 -1,-44 27,-93 91,-94 60,0 94,49 92,93 -3,66 -46,97 -46,106 0,19 4,47 16,62 30,33 103,33 112,54"
         style="fill:none;stroke:#dba981;stroke-width:3.72099996;stroke-linecap:round;stroke-linejoin:miter;stroke-miterlimit:4;stroke-dasharray:none;stroke-opacity:1" />
      <text
         transform="scale(1.093,0.915)"
         sodipodi:linespacing="125%"
         id="text5510"
         y="5396.9712"
         x="1891.1647"
         style="font-style:normal;font-variant:normal;font-weight:normal;font-stretch:normal;font-size:19.67370033px;line-height:125%;font-family:'Standard Symbols L';-inkscape-font-specification:'Standard Symbols L';text-align:start;letter-spacing:0px;word-spacing:0px;writing-mode:lr-tb;text-anchor:start;fill:#000000;fill-opacity:1;stroke:none"
         xml:space="preserve"><tspan
           y="5396.9712"
           x="1891.1647"
           id="tspan5512"
           sodipodi:role="line">4</tspan></text>
    </g>
    <g
       id="g12446"
       transform="matrix(0.8062,0,0,0.8062,-51.02,1783)">
      <path
         style="display:inline;fill:none;stroke:#dba981;stroke-width:3;stroke-linecap:butt;stroke-linejoin:miter;stroke-miterlimit:4;stroke-dasharray:9, 3;stroke-dashoffset:0;stroke-opacity:1"
         d="m 2280,5156 97,0"
         id="path3833-4-0-8-2-6-5-3-6-2"
         inkscape:connector-curvature="0"
         sodipodi:nodetypes="cc" />
      <path
         style="fill:none;stroke:#dba981;stroke-width:3.72099996;stroke-linecap:round;stroke-linejoin:miter;stroke-miterlimit:4;stroke-dasharray:none;stroke-opacity:1"
         d="m 2172,5249 c 11,-23 20,-44 22,-67 1,-8 -2,-16 -4,-24 -3,-9 -4,-20 -12,-26 -14,-11 -42,-4 -51,-9 -4,-1 -3,-4 -5,-7 -1,-4 -1,-10 -1,-14 0,-2 -1,-4 -2,-6 0,-2 -3,-3 -3,-5 0,-2 2,-4 2,-7 0,-1 -2,-2 -2,-4 -1,-4 3,-8 1,-12 -2,-3 -7,-3 -10,-7 -2,-2 -5,-5 -4,-10 7,-6 19,-13 23,-23 2,-5 -1,-11 0,-17 1,-11 -1,-24 6,-33 22,-29 65,-48 98,-47 39,0 78,33 82,62 1,14 1,29 -2,43 -2,11 -8,20 -14,30 -6,11 -15,24 -21,32 -5,7 -2,16 -2,24 1,11 4,26 7,32 15,25 33,65 41,95"
         id="path9289-8"
         inkscape:connector-curvature="0"
         sodipodi:nodetypes="caaaccscssccccscacccccccc" />
      <path
         style="fill:none;stroke:#dba981;stroke-width:2;stroke-linecap:round;stroke-linejoin:miter;stroke-miterlimit:4;stroke-dasharray:6, 2;stroke-dashoffset:0;stroke-opacity:1"
         d="m 2321,5249 -150,0"
         id="path13119-9"
         inkscape:connector-curvature="0"
         sodipodi:nodetypes="cc" />
      <path
         sodipodi:nodetypes="cc"
         inkscape:connector-curvature="0"
         id="path3833-4-0-8-2-6-1-5-8"
         d="m 2376,4933 -155,-1"
         style="fill:none;stroke:#dba981;stroke-width:3;stroke-linecap:butt;stroke-linejoin:miter;stroke-miterlimit:4;stroke-dasharray:9, 3;stroke-dashoffset:0;stroke-opacity:1" />
      <path
         sodipodi:nodetypes="cc"
         inkscape:connector-curvature="0"
         id="path3833-4-0-8-2-6-5-3-6"
         d="m 2130,5124 216,1"
         style="fill:none;stroke:#dba981;stroke-width:3;stroke-linecap:butt;stroke-linejoin:miter;stroke-miterlimit:4;stroke-dasharray:9, 3;stroke-dashoffset:0;stroke-opacity:1" />
      <g
         id="measurement-group-n-5"
         inkscape:label="measurement">
        <path
           style="fill:none;stroke:#7dc832;stroke-width:3;stroke-linecap:round;stroke-linejoin:round;stroke-miterlimit:4;stroke-dasharray:none;stroke-opacity:0.94120017;marker-start:url(#marker7359);marker-end:url(#marker7359)"
           d="m 2377,4933 0,223"
           id="path7494-1-6-3-5-7-8-5-0-3-8-9-2-6"
           inkscape:connector-curvature="0"
           sodipodi:nodetypes="cc" />
        <path
           sodipodi:type="arc"
           style="color:#000000;display:inline;overflow:visible;visibility:visible;fill:#ffffff;fill-opacity:1;stroke:#00000f;stroke-width:3;stroke-linecap:round;stroke-linejoin:miter;stroke-miterlimit:4;stroke-dasharray:none;stroke-dashoffset:0;stroke-opacity:0.94120017;marker:none;enable-background:accumulate"
           id="path4050-8-0-9-9-5-9-7-8-8-0-93-1"
           sodipodi:cx="57.75"
           sodipodi:cy="50.32"
           sodipodi:rx="20"
           sodipodi:ry="20"
           d="M 77.75,50.32 A 20,20 0 0 1 57.775927,70.319983 20,20 0 0 1 37.750067,50.371853 20,20 0 0 1 57.672221,30.320151 20,20 0 0 1 77.749731,50.216294"
           sodipodi:start="0"
           sodipodi:end="6.278"
           sodipodi:open="true"
           transform="matrix(-0.8943,0,0,0.8943,2428,4967)" />
      </g>
      <g
         id="measurement-group-n-6"
         inkscape:label="measurement">
        <path
           style="fill:none;stroke:#7dc832;stroke-width:3;stroke-linecap:round;stroke-linejoin:round;stroke-miterlimit:4;stroke-dasharray:none;stroke-opacity:0.94120017;marker-start:url(#marker7359);marker-end:url(#marker7359)"
           d="m 2344,5156 0,-32"
           id="path7494-1-6-3-5-7-8-5-0-3-8-9-0-9"
           inkscape:connector-curvature="0"
           sodipodi:nodetypes="cc" />
        <path
           sodipodi:type="arc"
           style="color:#000000;display:inline;overflow:visible;visibility:visible;fill:#ffffff;fill-opacity:1;stroke:#00000f;stroke-width:3;stroke-linecap:round;stroke-linejoin:miter;stroke-miterlimit:4;stroke-dasharray:none;stroke-dashoffset:0;stroke-opacity:0.94120017;marker:none;enable-background:accumulate"
           id="path4050-8-0-9-9-5-9-7-8-8-0-97-3"
           sodipodi:cx="57.75"
           sodipodi:cy="50.32"
           sodipodi:rx="20"
           sodipodi:ry="20"
           d="M 77.75,50.32 A 20,20 0 0 1 57.775927,70.319983 20,20 0 0 1 37.750067,50.371853 20,20 0 0 1 57.672221,30.320151 20,20 0 0 1 77.749731,50.216294"
           sodipodi:start="0"
           sodipodi:end="6.278"
           sodipodi:open="true"
           transform="matrix(-0.8943,0,0,0.8943,2392,5034)" />
      </g>
      <text
         sodipodi:linespacing="125%"
         id="text5502-2"
         y="5085.2148"
         x="2336.199"
         style="font-style:normal;font-variant:normal;font-weight:normal;font-stretch:normal;font-size:18px;line-height:125%;font-family:'Standard Symbols L';-inkscape-font-specification:'Standard Symbols L';text-align:start;letter-spacing:0px;word-spacing:0px;writing-mode:lr-tb;text-anchor:start;fill:#000000;fill-opacity:1;stroke:none"
         xml:space="preserve"><tspan
           y="5085.2148"
           x="2336.199"
           id="tspan5504-6"
           sodipodi:role="line">6</tspan></text>
      <text
         sodipodi:linespacing="125%"
         id="text5506-5"
         y="5018.0288"
         x="2371.9783"
         style="font-style:normal;font-variant:normal;font-weight:normal;font-stretch:normal;font-size:18px;line-height:125%;font-family:'Standard Symbols L';-inkscape-font-specification:'Standard Symbols L';text-align:start;letter-spacing:0px;word-spacing:0px;writing-mode:lr-tb;text-anchor:start;fill:#000000;fill-opacity:1;stroke:none"
         xml:space="preserve"><tspan
           y="5018.0288"
           x="2371.9783"
           id="tspan5508-3"
           sodipodi:role="line">5</tspan></text>
      <path
         style="display:inline;fill:none;stroke:#dba981;stroke-width:1.48899996;stroke-linecap:butt;stroke-linejoin:miter;stroke-miterlimit:4;stroke-dasharray:4.467, 1.489;stroke-dashoffset:0;stroke-opacity:1"
         d="m 2193,5188 c 39,-2 63,-27 87,-33"
         id="path3833-4-0-8-2-6-5-3-6-3"
         inkscape:connector-curvature="0"
         sodipodi:nodetypes="cc" />
      <path
         sodipodi:nodetypes="cc"
         inkscape:connector-curvature="0"
         id="path8943"
         d="m 2353,5091 c 11,6 13,27 -4,47"
         style="fill:none;stroke:#000000;stroke-width:1px;stroke-linecap:butt;stroke-linejoin:miter;stroke-opacity:1;marker-end:url(#Arrow1Lend)" />
    </g>
    <g
       id="g12408"
       transform="matrix(0.8062,0,0,0.8062,-51.02,1783)">
      <path
         style="fill:none;stroke:#dba981;stroke-width:3.72099996;stroke-linecap:round;stroke-linejoin:miter;stroke-miterlimit:4;stroke-dasharray:none;stroke-opacity:1"
         d="m 1612,5251 c 11,-23 20,-44 22,-67 1,-8 -2,-16 -4,-24 -3,-9 -4,-20 -12,-26 -14,-11 -42,-4 -51,-9 -4,-1 -3,-4 -5,-7 -1,-4 -1,-10 -1,-14 0,-2 -1,-4 -2,-6 0,-2 -3,-3 -3,-5 0,-2 2,-4 2,-7 0,-1 -2,-2 -2,-4 -1,-4 3,-8 1,-12 -2,-3 -7,-3 -10,-7 -2,-2 -5,-5 -4,-10 7,-6 19,-13 23,-23 2,-5 -1,-11 0,-17 1,-11 -1,-24 6,-33 22,-29 65,-48 98,-47 39,0 78,33 82,62 1,14 1,29 -2,43 -2,11 -8,20 -14,30 -6,11 -15,24 -21,32 -5,7 -2,16 -2,24 1,11 4,26 7,32 15,25 33,65 41,95"
         id="path9289"
         inkscape:connector-curvature="0"
         sodipodi:nodetypes="caaaccscssccccscacccccccc" />
      <path
         style="fill:none;stroke:#dba981;stroke-width:2;stroke-linecap:round;stroke-linejoin:miter;stroke-miterlimit:4;stroke-dasharray:6, 2;stroke-dashoffset:0;stroke-opacity:1"
         d="m 1761,5251 -150,0"
         id="path13119"
         inkscape:connector-curvature="0"
         sodipodi:nodetypes="cc" />
      <path
         sodipodi:nodetypes="cc"
         inkscape:connector-curvature="0"
         id="path3833-4-0-8-2-6-1-5"
         d="m 1522,4933 139,1"
         style="fill:none;stroke:#dba981;stroke-width:3;stroke-linecap:butt;stroke-linejoin:miter;stroke-miterlimit:4;stroke-dasharray:9, 3;stroke-dashoffset:0;stroke-opacity:1" />
      <path
         sodipodi:nodetypes="cc"
         inkscape:connector-curvature="0"
         id="path3833-4-0-8-2-6-5-3"
         d="m 1522,5128 49,0"
         style="fill:none;stroke:#dba981;stroke-width:3;stroke-linecap:butt;stroke-linejoin:miter;stroke-miterlimit:4;stroke-dasharray:9, 3;stroke-dashoffset:0;stroke-opacity:1" />
      <path
         sodipodi:nodetypes="cc"
         inkscape:connector-curvature="0"
         id="path3833-4-0-8-2-6-6-9-5"
         d="m 1566,4992 2,-90"
         style="fill:none;stroke:#dba981;stroke-width:3;stroke-linecap:butt;stroke-linejoin:miter;stroke-miterlimit:4;stroke-dasharray:9, 3;stroke-dashoffset:0;stroke-opacity:1" />
      <path
         style="fill:none;stroke:#dba981;stroke-width:1.51999998;stroke-linecap:round;stroke-linejoin:miter;stroke-miterlimit:4;stroke-dasharray:4.56, 1.52;stroke-dashoffset:0;stroke-opacity:1"
         d="m 1572,4987 c 47,21 147,12 179,0"
         id="path3992-4-65-7-5-6"
         inkscape:connector-curvature="0"
         sodipodi:nodetypes="cc" />
      <g
         id="measurement-group-n-3"
         inkscape:label="measurement">
        <path
           style="fill:none;stroke:#000000;stroke-width:3;stroke-linecap:round;stroke-linejoin:round;stroke-miterlimit:4;stroke-dasharray:none;stroke-opacity:1;marker-start:url(#marker7359);marker-end:url(#marker7359)"
           d="m 1754,4901 -185,0"
           id="path7494-1-6-3-5-7-8-5-0-3-8-9-2"
           inkscape:connector-curvature="0"
           sodipodi:nodetypes="cc" />
        <path
           sodipodi:type="arc"
           style="color:#000000;display:inline;overflow:visible;visibility:visible;fill:#ffffff;fill-opacity:1;stroke:#00000f;stroke-width:3;stroke-linecap:round;stroke-linejoin:miter;stroke-miterlimit:4;stroke-dasharray:none;stroke-dashoffset:0;stroke-opacity:0.94120017;marker:none;enable-background:accumulate"
           id="path4050-8-0-9-9-5-9-7-8-8-0-93"
           sodipodi:cx="57.75"
           sodipodi:cy="50.32"
           sodipodi:rx="20"
           sodipodi:ry="20"
           d="M 77.75,50.32 A 20,20 0 0 1 57.775927,70.319983 20,20 0 0 1 37.750067,50.371853 20,20 0 0 1 57.672221,30.320151 20,20 0 0 1 77.749731,50.216294"
           sodipodi:start="0"
           sodipodi:end="6.278"
           sodipodi:open="true"
           transform="matrix(-0.8943,0,0,0.8943,1709,4856)" />
      </g>
      <g
         id="measurement-group-n-2"
         inkscape:label="#g4326">
        <path
           style="fill:none;stroke:#000000;stroke-width:3;stroke-linecap:round;stroke-linejoin:round;stroke-miterlimit:4;stroke-dasharray:none;stroke-opacity:1;marker-start:url(#marker7359);marker-end:url(#marker7359)"
           d="m 1521,5127 1,-195"
           id="path7494-1-6-3-5-7-8-5-0-3-8-9-0"
           inkscape:connector-curvature="0"
           sodipodi:nodetypes="cc" />
        <path
           sodipodi:type="arc"
           style="color:#000000;display:inline;overflow:visible;visibility:visible;fill:#ffffff;fill-opacity:1;stroke:#00000f;stroke-width:3;stroke-linecap:round;stroke-linejoin:miter;stroke-miterlimit:4;stroke-dasharray:none;stroke-dashoffset:0;stroke-opacity:0.94120017;marker:none;enable-background:accumulate"
           id="path4050-8-0-9-9-5-9-7-8-8-0-97"
           sodipodi:cx="57.75"
           sodipodi:cy="50.32"
           sodipodi:rx="20"
           sodipodi:ry="20"
           d="M 77.75,50.32 A 20,20 0 0 1 57.775927,70.319983 20,20 0 0 1 37.750067,50.371853 20,20 0 0 1 57.672221,30.320151 20,20 0 0 1 77.749731,50.216294"
           sodipodi:start="0"
           sodipodi:end="6.278"
           sodipodi:open="true"
           transform="matrix(-0.8943,0,0,0.8943,1573,4984)" />
      </g>
      <g
         id="measurement-group-n-1"
         inkscape:label="measurement">
        <path
           style="fill:none;stroke:#000000;stroke-width:3;stroke-linecap:round;stroke-linejoin:round;stroke-miterlimit:4;stroke-dasharray:none;stroke-opacity:1;marker-start:none;marker-end:none"
           d="m 1752,4988 c -26,14 -151,15 -181,0"
           id="path7494-1-6-3-5-7-8-5-0-0-4-5-2-7"
           inkscape:connector-curvature="0"
           sodipodi:nodetypes="cc" />
        <path
           transform="matrix(-0.8943,0,0,0.8943,1715,4955)"
           sodipodi:open="true"
           sodipodi:end="6.278"
           sodipodi:start="0"
           d="M 77.75,50.32 A 20,20 0 0 1 57.775927,70.319983 20,20 0 0 1 37.750067,50.371853 20,20 0 0 1 57.672221,30.320151 20,20 0 0 1 77.749731,50.216294"
           sodipodi:ry="20"
           sodipodi:rx="20"
           sodipodi:cy="50.32"
           sodipodi:cx="57.75"
           id="path4050-8-0-9-9-5-9-7-8-8-0-93-2"
           style="color:#000000;display:inline;overflow:visible;visibility:visible;fill:#ffffff;fill-opacity:1;stroke:#00000f;stroke-width:3;stroke-linecap:round;stroke-linejoin:miter;stroke-miterlimit:4;stroke-dasharray:none;stroke-dashoffset:0;stroke-opacity:0.94120017;marker:none;enable-background:accumulate"
           sodipodi:type="arc" />
      </g>
      <path
         sodipodi:nodetypes="cc"
         inkscape:connector-curvature="0"
         id="path3833-4-0-8-2-6-6-9-5-2-9"
         d="m 1748,4988 c 0,-11 -172,-17 -178,-1"
         style="opacity:0.3;fill:none;stroke:#000000;stroke-width:3;stroke-linecap:butt;stroke-linejoin:miter;stroke-miterlimit:4;stroke-dasharray:9, 3;stroke-dashoffset:0;stroke-opacity:1" />
      <text
         sodipodi:linespacing="125%"
         id="text5498"
         y="5006.0581"
         x="1658.3912"
         style="font-style:normal;font-variant:normal;font-weight:normal;font-stretch:normal;font-size:18px;line-height:125%;font-family:'Standard Symbols L';-inkscape-font-specification:'Standard Symbols L';text-align:start;letter-spacing:0px;word-spacing:0px;writing-mode:lr-tb;text-anchor:start;fill:#000000;fill-opacity:1;stroke:none"
         xml:space="preserve"><tspan
           y="5006.0581"
           x="1658.3912"
           id="tspan5500"
           sodipodi:role="line">1</tspan></text>
      <text
         sodipodi:linespacing="125%"
         id="text5502"
         y="5035.1753"
         x="1516.4542"
         style="font-style:normal;font-variant:normal;font-weight:normal;font-stretch:normal;font-size:18px;line-height:125%;font-family:'Standard Symbols L';-inkscape-font-specification:'Standard Symbols L';text-align:start;letter-spacing:0px;word-spacing:0px;writing-mode:lr-tb;text-anchor:start;fill:#000000;fill-opacity:1;stroke:none"
         xml:space="preserve"><tspan
           y="5035.1753"
           x="1516.4542"
           id="tspan5504"
           sodipodi:role="line">2</tspan></text>
      <text
         sodipodi:linespacing="125%"
         id="text5506"
         y="4907.0581"
         x="1652.6882"
         style="font-style:normal;font-variant:normal;font-weight:normal;font-stretch:normal;font-size:18px;line-height:125%;font-family:'Standard Symbols L';-inkscape-font-specification:'Standard Symbols L';text-align:start;letter-spacing:0px;word-spacing:0px;writing-mode:lr-tb;text-anchor:start;fill:#000000;fill-opacity:1;stroke:none"
         xml:space="preserve"><tspan
           y="4907.0581"
           x="1652.6882"
           id="tspan5508"
           sodipodi:role="line">3</tspan></text>
      <path
         style="display:inline;fill:none;stroke:#dba981;stroke-width:2;stroke-linecap:butt;stroke-linejoin:miter;stroke-miterlimit:4;stroke-dasharray:6, 2;stroke-dashoffset:0;stroke-opacity:1"
         d="m 1754,4992 0,-89"
         id="path3833-4-0-8-2-6-6-9-5-5"
         inkscape:connector-curvature="0"
         sodipodi:nodetypes="cc" />
      <path
         sodipodi:nodetypes="cc"
         inkscape:connector-curvature="0"
         id="path3833-4-0-8-2-6-5-3-6-3-4"
         d="m 1634,5190 c 39,-2 63,-27 87,-33"
         style="display:inline;fill:none;stroke:#dba981;stroke-width:1.48899996;stroke-linecap:butt;stroke-linejoin:miter;stroke-miterlimit:4;stroke-dasharray:4.467, 1.489;stroke-dashoffset:0;stroke-opacity:1" />
    </g>
  </g>
</svg>
